<svg width="20" height="20" viewBox="0 0 20 20" fill="none" xmlns="http://www.w3.org/2000/svg">
<path d="M12.1201 3.85618C11.8033 4.17295 11.8033 4.68669 12.1201 5.00347L15.9272 8.81051L2.06124 8.81051C1.61324 8.81051 1.25 9.17382 1.25 9.62175C1.25 10.0698 1.61324 10.433 2.06124 10.433L15.9272 10.433L12.1203 14.24C11.8035 14.5569 11.8035 15.0705 12.1203 15.3873C12.4371 15.7042 12.9507 15.7042 13.2676 15.3873L18.4594 10.1954C18.6177 10.0371 18.697 9.82936 18.697 9.62175C18.697 9.41414 18.6177 9.20659 18.4594 9.04811L13.2674 3.85618C12.9506 3.53934 12.437 3.53934 12.1201 3.85618Z" fill="white"/>
</svg>
