<svg width="37" height="37" viewBox="0 0 37 37" fill="none" xmlns="http://www.w3.org/2000/svg">
<path d="M16.0497 32.5335C16.0497 32.5335 9.33202 31.3895 11.5023 24.5644C13.25 19.0869 21.7162 12.2297 23.7336 10.2723C27.388 6.72748 34.9655 10.7622 32.7569 15.1679C30.5484 19.5737 36.5333 13.2271 36.5333 13.2271L35.3169 9.37423L32.6867 6.52492L29.3433 7.30727L28.7894 2.34655L25.3045 0.657837L21.3463 2.34655L20.7923 6.35749L21.029 9.37423L11.1344 19.4186L8.94136 21.3626L5.43476 20.0522L1.68321 22.0013L1.40004 26.1477L2.82418 28.7603L4.72475 29.3938L7.10176 29.4724L7.97196 33.7468L10.9008 34.8248L13.1941 35.5658L16.0548 34.0869L16.0497 32.5335Z" fill="#FFE2A3"/>
<path d="M35.3541 7.75582C34.832 7.23032 34.2109 6.81359 33.5267 6.52975C32.8424 6.24591 32.1087 6.10061 31.368 6.10225C31.2067 6.10225 31.0445 6.10948 30.8832 6.12292C30.9524 5.30349 30.8421 4.47884 30.5601 3.70637C30.2781 2.9339 29.8311 2.23216 29.2503 1.65C28.2803 0.680752 26.9904 0.0981855 25.6219 0.0113293C24.2534 -0.0755268 22.9001 0.33928 21.8154 1.17812C20.7306 2.01696 19.9887 3.22235 19.7285 4.56869C19.4683 5.91503 19.7076 7.31006 20.4017 8.49269L8.79979 20.0966C8.06945 19.6022 7.23331 19.286 6.35857 19.1734C5.48382 19.0608 4.59485 19.1549 3.76311 19.4483C2.93136 19.7417 2.18003 20.226 1.56949 20.8625C0.958948 21.499 0.506222 22.2698 0.247692 23.113C-0.0108381 23.9563 -0.0679625 24.8484 0.0809091 25.7177C0.229781 26.587 0.580497 27.4093 1.10487 28.1184C1.62925 28.8276 2.31267 29.4038 3.1002 29.8009C3.88774 30.1979 4.75743 30.4047 5.6394 30.4046C5.80062 30.4046 5.96288 30.3974 6.12307 30.3839C6.05379 31.2034 6.164 32.028 6.44601 32.8005C6.72802 33.573 7.17505 34.2748 7.75597 34.8568C8.74702 35.8514 10.0735 36.4405 11.4759 36.5088C12.8783 36.5772 14.2557 36.1198 15.3388 35.2262C16.4218 34.3327 17.1325 33.0672 17.3318 31.6773C17.5312 30.2875 17.2048 28.8733 16.4166 27.7113L27.9192 16.2035C29.0534 17.0776 30.4777 17.4875 31.9031 17.3499C33.3284 17.2123 34.6481 16.5376 35.5941 15.4627C36.5402 14.3877 37.0418 12.9931 36.9973 11.5618C36.9527 10.1305 36.3652 8.76981 35.3541 7.75582ZM14.424 26.9528C14.2455 27.1331 14.1442 27.3758 14.1417 27.6296C14.1392 27.8833 14.2356 28.128 14.4106 28.3118C15.0743 29.0125 15.4397 29.9438 15.4297 30.9089C15.4197 31.8741 15.035 32.7976 14.3568 33.4844C13.7516 34.0877 12.9561 34.4628 12.1055 34.5457C11.255 34.6286 10.402 34.4143 9.69162 33.9392C8.98128 33.4641 8.45749 32.7575 8.20934 31.9398C7.9612 31.122 8.00405 30.2435 8.33059 29.4538C8.40451 29.2761 8.42402 29.0806 8.38663 28.8918C8.34925 28.7031 8.25666 28.5297 8.12061 28.3936C7.98455 28.2576 7.81116 28.165 7.62242 28.1276C7.43367 28.0902 7.23808 28.1097 7.06044 28.1836C6.4454 28.4397 5.77258 28.5247 5.11318 28.4298C4.45377 28.3348 3.8323 28.0634 3.31451 27.6441C2.79672 27.2249 2.40188 26.6736 2.17175 26.0484C1.94163 25.4232 1.88478 24.7474 2.00723 24.0925C2.12967 23.4377 2.42686 22.8281 2.86734 22.3283C3.30782 21.8284 3.87521 21.457 4.50948 21.2532C5.14376 21.0494 5.82133 21.0209 6.4705 21.1706C7.11967 21.3203 7.7163 21.6427 8.19727 22.1037C8.38107 22.2786 8.62579 22.375 8.87951 22.3725C9.13323 22.37 9.37599 22.2687 9.5563 22.0902L22.3487 9.29364C22.5204 9.12322 22.622 8.89467 22.6335 8.65305C22.645 8.41143 22.5655 8.17428 22.4108 7.98835C21.9949 7.48319 21.7207 6.87669 21.616 6.23082C21.5113 5.58495 21.58 4.92288 21.815 4.31224C22.05 3.7016 22.4429 3.1643 22.9535 2.75523C23.4642 2.34616 24.0743 2.07999 24.7215 1.98392C25.3687 1.88785 26.0298 1.96532 26.6373 2.20842C27.2447 2.45151 27.7767 2.85152 28.179 3.36756C28.5812 3.88361 28.8393 4.49719 28.9267 5.14561C29.0142 5.79403 28.9279 6.45405 28.6768 7.05822C28.6028 7.23572 28.5832 7.4312 28.6205 7.61986C28.6578 7.80851 28.7503 7.98182 28.8863 8.11781C29.0223 8.25379 29.1956 8.3463 29.3842 8.38361C29.5729 8.42091 29.7684 8.40133 29.9459 8.32734C30.5641 8.06963 31.2407 7.98473 31.9035 8.0817C32.5662 8.17868 33.1901 8.45389 33.7086 8.87792C34.2271 9.30196 34.6206 9.85889 34.8471 10.4892C35.0737 11.1195 35.1247 11.7995 34.9948 12.4566C34.8649 13.1137 34.5589 13.7231 34.1095 14.2198C33.6601 14.7164 33.0842 15.0817 32.4434 15.2765C31.8025 15.4713 31.1208 15.4883 30.4711 15.3258C29.8213 15.1632 29.2279 14.8272 28.7543 14.3536C28.7078 14.3081 28.6613 14.2585 28.6148 14.2068C28.5263 14.1092 28.4188 14.0306 28.299 13.9757C28.1792 13.9209 28.0495 13.8909 27.9177 13.8877C27.786 13.8845 27.655 13.9082 27.5327 13.9571C27.4103 14.0061 27.2992 14.0795 27.2061 14.1727L14.424 26.9528Z" fill="#FC6552"/>
<path d="M13.6603 19.1965L10.3376 22.5202C10.2714 22.5863 10.219 22.6649 10.1832 22.7513C10.1474 22.8378 10.1289 22.9304 10.1289 23.024C10.1289 23.1176 10.1474 23.2102 10.1832 23.2967C10.219 23.3831 10.2714 23.4617 10.3376 23.5278C10.4038 23.594 10.4823 23.6465 10.5688 23.6823C10.6552 23.7181 10.7479 23.7365 10.8414 23.7365C10.935 23.7365 11.0277 23.7181 11.1141 23.6823C11.2005 23.6465 11.2791 23.594 11.3453 23.5278L14.6689 20.2041C14.7971 20.0693 14.8674 19.8897 14.865 19.7037C14.8626 19.5177 14.7875 19.34 14.6559 19.2085C14.5243 19.077 14.3465 19.0022 14.1605 18.9999C13.9745 18.9977 13.795 19.0682 13.6603 19.1965Z" fill="#FC6552"/>
<path d="M15.1764 17.6865L15.1609 17.7031C15.0947 17.7692 15.0422 17.8478 15.0064 17.9342C14.9706 18.0207 14.9522 18.1133 14.9522 18.2069C14.9522 18.3005 14.9706 18.3931 15.0064 18.4796C15.0422 18.566 15.0947 18.6446 15.1609 18.7107C15.227 18.7769 15.3056 18.8294 15.392 18.8652C15.4785 18.901 15.5711 18.9194 15.6647 18.9194C15.7583 18.9194 15.8509 18.901 15.9374 18.8652C16.0238 18.8294 16.1024 18.7769 16.1685 18.7107L16.1851 18.6942C16.254 18.6286 16.3091 18.5498 16.3471 18.4626C16.3851 18.3754 16.4053 18.2814 16.4064 18.1863C16.4076 18.0911 16.3896 17.9967 16.3537 17.9086C16.3178 17.8205 16.2647 17.7405 16.1973 17.6732C16.13 17.606 16.0499 17.5529 15.9618 17.517C15.8736 17.4812 15.7792 17.4634 15.684 17.4647C15.5889 17.4659 15.495 17.4862 15.4078 17.5243C15.3206 17.5624 15.2419 17.6176 15.1764 17.6865Z" fill="#FC6552"/>
</svg>
