<svg width="40" height="35" viewBox="0 0 40 35" fill="none" xmlns="http://www.w3.org/2000/svg">
<path d="M16.2248 30.8914C16.2248 30.8914 14.1219 28.8681 15.0774 24.902C16.0329 20.9359 19.5854 18.0198 19.5854 18.0198L17.9945 17.3712C17.9945 17.3712 12.021 19.4376 12.021 19.5817C12.021 19.7258 7.73479 26.3198 7.73479 26.3198L8.1503 31.6242L9.97988 33.3901L11.4454 33.7729L15.3638 31.714L16.2248 30.8914Z" fill="#FFE2A3"/>
<path d="M5.56736 22.0186C5.56736 22.0186 2.82065 16.2856 6.15414 14.4691C9.48763 12.6526 4.18137 12.939 4.18137 12.939L1.31487 14.2763L0.191849 18.5588L1.84456 20.9667L4.33017 22.3527L5.56736 22.0186Z" fill="#FFE2A3"/>
<path d="M14.456 13.698C14.456 13.698 11.3977 7.46713 14.982 2.24697L12.8295 0.896545L9.97801 3.14258L8.62384 6.67821L9.14979 11.9002L11.3022 14.6142C11.3022 14.6142 12.736 14.9006 12.9746 14.9006C13.2132 14.9006 14.456 13.698 14.456 13.698Z" fill="#FFE2A3"/>
<path d="M26.3076 13.698C26.3076 13.698 21.051 6.51164 26.3076 2.24698L25.5908 1.18292L21.7678 2.99847L20.6682 7.44L21.6724 12.1745L24.3002 14.7069L25.8631 14.4205L26.3076 13.698Z" fill="#FFE2A3"/>
<path d="M31.2349 23.5637C31.1126 23.3588 30.9782 23.1612 30.8324 22.9723C30.731 22.8431 30.6405 22.7057 30.562 22.5614C29.2518 19.7642 25.6769 16.4691 19.8933 16.3848H19.6715C13.976 16.3848 10.4253 19.5078 9.00286 22.4323C8.93318 22.5465 8.85264 22.6536 8.76235 22.7523L8.75579 22.7598C8.61783 22.9206 8.4894 23.0894 8.37116 23.2652C7.16953 25.1369 6.55842 27.2425 6.6492 29.1966C6.74279 31.2929 7.6281 32.9802 9.13107 33.9469C9.71824 34.336 10.4069 34.5437 11.1113 34.544C12.5319 34.544 13.8028 33.7607 15.2805 32.8511L15.3114 32.8314C16.2154 32.2774 17.1494 31.7084 18.1798 31.276C18.2827 31.2461 18.7413 31.1825 19.5162 31.1825C20.452 31.1825 21.0912 31.2667 21.2213 31.305C22.2404 31.758 23.136 32.3495 24.0026 32.9203C25.3708 33.8206 26.6632 34.6713 28.1007 34.6713C28.7324 34.6709 29.3526 34.5023 29.8975 34.1828C31.3949 33.333 32.3541 31.7496 32.6012 29.7319C32.8426 27.7395 32.3597 25.5477 31.2349 23.5637ZM28.7848 32.239C28.5768 32.3642 28.3388 32.4308 28.096 32.4318C27.338 32.4318 26.3647 31.7917 25.2351 31.0486C24.3311 30.4534 23.3054 29.7796 22.1188 29.2555C21.5048 28.9841 20.2237 28.943 19.5152 28.943C18.4746 28.943 17.7446 29.0272 17.345 29.1928C16.1284 29.6954 15.0681 30.3477 14.1313 30.9223L14.0817 30.9532C12.9063 31.6747 11.8909 32.298 11.1104 32.298C10.8373 32.2972 10.5708 32.214 10.3458 32.0593C9.47078 31.4978 8.95513 30.445 8.8943 29.0946C8.82598 27.5972 9.31075 25.9642 10.2616 24.4865C10.3294 24.3856 10.4038 24.2893 10.4843 24.1982C10.698 23.9618 10.8798 23.6985 11.0252 23.4149C12.1482 21.1052 15.0138 18.6374 19.6734 18.6374H19.8606C24.6053 18.7039 27.4915 21.3064 28.5218 23.516C28.6566 23.7877 28.8181 24.0454 29.0038 24.2853L29.0235 24.3124C29.1161 24.4287 29.2005 24.5513 29.2761 24.6792C31.0028 27.7133 30.7838 31.1038 28.7848 32.239Z" fill="#FC6552"/>
<path d="M25.864 0C22.596 0 19.9373 3.53938 19.9373 7.89013C19.9373 12.2409 22.596 15.7803 25.864 15.7803C29.132 15.7803 31.7907 12.2409 31.7907 7.89013C31.7907 3.53938 29.132 0 25.864 0ZM29.541 7.89013C29.541 10.9494 27.8564 13.5342 25.864 13.5342C23.8716 13.5342 22.1852 10.9494 22.1852 7.89013C22.1852 4.83085 23.8697 2.24697 25.864 2.24697C27.8583 2.24697 29.541 4.83085 29.541 7.89013Z" fill="#FC6552"/>
<path d="M35.2899 11.451C32.6489 11.451 30.5807 14.165 30.5807 17.6276C30.5807 21.0903 32.6489 23.8042 35.2899 23.8042C37.9308 23.8042 40 21.0903 40 17.6276C40 14.165 37.9308 11.451 35.2899 11.451ZM37.7493 17.6276C37.7493 19.7558 36.6263 21.5582 35.2899 21.5582C33.9535 21.5582 32.8267 19.7595 32.8267 17.6276C32.8267 15.4958 33.9554 13.6971 35.2899 13.6971C36.6244 13.6971 37.7493 15.4977 37.7493 17.6276Z" fill="#FC6552"/>
<path d="M13.6578 0C10.3898 0 7.73105 3.53938 7.73105 7.89013C7.73105 12.2409 10.3917 15.7803 13.6578 15.7803C16.9239 15.7803 19.5836 12.2409 19.5836 7.89013C19.5836 3.53938 16.9276 0 13.6578 0ZM17.3375 7.89013C17.3375 10.9494 15.653 13.5342 13.6578 13.5342C11.6625 13.5342 9.97802 10.9494 9.97802 7.89013C9.97802 4.83085 11.6625 2.24697 13.6578 2.24697C15.653 2.24697 17.3394 4.83085 17.3394 7.89013H17.3375Z" fill="#FC6552"/>
<path d="M4.70919 11.451C2.06822 11.451 0 14.165 0 17.6276C0 21.0903 2.06822 23.8042 4.70919 23.8042C7.35015 23.8042 9.41931 21.0903 9.41931 17.6276C9.41931 14.165 7.35015 11.451 4.70919 11.451ZM7.17234 17.6276C7.17234 19.7558 6.04932 21.5582 4.70919 21.5582C3.36905 21.5582 2.24603 19.7595 2.24603 17.6276C2.24603 15.4958 3.36905 13.6971 4.70919 13.6971C6.04932 13.6971 7.17234 15.4977 7.17234 17.6276Z" fill="#FC6552"/>
</svg>
