<svg width="33" height="33" viewBox="0 0 33 33" fill="none" xmlns="http://www.w3.org/2000/svg">
<path d="M7.41822 30.0944C7.41822 30.0944 4.58423 26.6843 7.24174 24.0735C9.89926 21.4627 23.9394 3.34069 29.1922 4.90302C30.6175 5.32656 28.4105 1.823 28.1801 1.823C27.9496 1.823 23.2149 1.11606 23.2149 1.11606L14.8395 7.75985L13.8617 7.63216L14.5759 9.85679C14.6674 10.1408 14.6559 10.4479 14.5435 10.7243C14.4312 11.0007 14.225 11.2287 13.9613 11.3683L5.80295 15.694L0.774429 22.3326V26.7756L3.70808 30.0975L6.95938 30.9809L7.41822 30.0944Z" fill="#FFE2A3"/>
<path d="M30.0652 2.22992C28.6317 0.801833 26.6906 0 24.6671 0C22.6436 0 20.7026 0.801833 19.2691 2.22992L13.871 7.628C13.6627 7.85065 13.5491 8.14552 13.5542 8.45036C13.5593 8.7552 13.6826 9.04613 13.8982 9.26171C14.1138 9.47729 14.4047 9.60065 14.7096 9.60573C15.0144 9.61081 15.3093 9.49722 15.5319 9.28894L20.93 3.89087C21.9299 2.94319 23.2603 2.42324 24.6378 2.44171C26.0153 2.46018 27.3312 3.01562 28.3054 3.98976C29.2795 4.96391 29.8349 6.27982 29.8534 7.65735C29.8719 9.03488 29.3519 10.3652 28.4043 11.3651L21.3452 18.4242C20.3527 19.4146 19.0077 19.9709 17.6055 19.9709C16.2033 19.9709 14.8583 19.4146 13.8658 18.4242C13.6431 18.2159 13.3483 18.1023 13.0434 18.1074C12.7386 18.1125 12.4477 18.2358 12.2321 18.4514C12.0165 18.667 11.8931 18.9579 11.8881 19.2627C11.883 19.5676 11.9966 19.8624 12.2048 20.0851C13.6378 21.5163 15.5803 22.3202 17.6055 22.3202C19.6308 22.3202 21.5732 21.5163 23.0062 20.0851L30.0652 13.0261C31.4928 11.5906 32.2941 9.64836 32.2941 7.62384C32.2941 5.59933 31.4928 3.65712 30.0652 2.22161V2.22992Z" fill="#FC6552"/>
<path d="M15.9389 23.8357L11.3713 28.4033C10.3727 29.3613 9.03837 29.8896 7.65469 29.875C6.271 29.8604 4.94816 29.304 3.97003 28.3251C2.9919 27.3463 2.43641 26.0231 2.42275 24.6394C2.4091 23.2557 2.93837 21.9218 3.89699 20.9239L10.5408 14.2801C11.5348 13.2945 12.878 12.7414 14.2779 12.7414C15.6778 12.7414 17.021 13.2945 18.015 14.2801C18.2353 14.5003 18.534 14.6241 18.8455 14.6241C19.157 14.6241 19.4557 14.5003 19.676 14.2801C19.8962 14.0598 20.02 13.7611 20.02 13.4496C20.02 13.1381 19.8962 12.8394 19.676 12.6191C18.2426 11.1908 16.3015 10.3888 14.2779 10.3888C12.2543 10.3888 10.3133 11.1908 8.87983 12.6191L2.23605 19.2629C0.847943 20.7034 0.080444 22.631 0.0985335 24.6314C0.116623 26.6318 0.918856 28.5452 2.33278 29.9604C3.74671 31.3755 5.65944 32.1794 7.6598 32.1992C9.66016 32.219 11.5884 31.4532 13.0301 30.0664L17.5977 25.4987C17.818 25.2785 17.9417 24.9798 17.9417 24.6683C17.9417 24.3568 17.818 24.0581 17.5977 23.8378C17.3775 23.6175 17.0787 23.4938 16.7673 23.4938C16.4558 23.4938 16.157 23.6175 15.9368 23.8378L15.9389 23.8357Z" fill="#FC6552"/>
<path d="M19.975 25.8517C19.6637 25.8525 19.3654 25.9769 19.1457 26.1974C18.9259 26.4179 18.8027 26.7166 18.803 27.0279V30.5574C18.812 30.8629 18.9398 31.1528 19.1591 31.3657C19.3784 31.5785 19.6719 31.6976 19.9776 31.6976C20.2832 31.6976 20.5768 31.5785 20.7961 31.3657C21.0153 31.1528 21.1431 30.8629 21.1522 30.5574V27.0279C21.1519 26.7158 21.0277 26.4167 20.807 26.1961C20.5863 25.9756 20.287 25.8517 19.975 25.8517Z" fill="#FC6552"/>
<path d="M24.1907 25.0233C23.968 24.815 23.6731 24.7014 23.3683 24.7065C23.0635 24.7116 22.7725 24.835 22.5569 25.0505C22.3414 25.2661 22.218 25.5571 22.2129 25.8619C22.2078 26.1667 22.3214 26.4616 22.5297 26.6843L25.0211 29.1757C25.2414 29.3959 25.5401 29.5197 25.8516 29.5197C26.1631 29.5197 26.4618 29.3959 26.6821 29.1757C26.9023 28.9554 27.0261 28.6567 27.0261 28.3452C27.0261 28.0337 26.9023 27.735 26.6821 27.5147L24.1907 25.0233Z" fill="#FC6552"/>
<path d="M27.007 20.8585H23.4775C23.3203 20.8538 23.1638 20.8807 23.0172 20.9377C22.8706 20.9946 22.7369 21.0804 22.6241 21.1899C22.5112 21.2994 22.4215 21.4305 22.3603 21.5753C22.299 21.7202 22.2674 21.8758 22.2674 22.0331C22.2674 22.1903 22.299 22.346 22.3603 22.4908C22.4215 22.6357 22.5112 22.7668 22.6241 22.8763C22.7369 22.9858 22.8706 23.0716 23.0172 23.1285C23.1638 23.1854 23.3203 23.2124 23.4775 23.2077H27.007C27.3125 23.1986 27.6024 23.0709 27.8153 22.8516C28.0281 22.6323 28.1472 22.3387 28.1472 22.0331C28.1472 21.7275 28.0281 21.4339 27.8153 21.2146C27.6024 20.9953 27.3125 20.8676 27.007 20.8585Z" fill="#FC6552"/>
<path d="M10.574 7.34669C10.8859 7.34614 11.1849 7.22191 11.4054 7.00123C11.6259 6.78055 11.7499 6.48144 11.7502 6.1695V2.63998C11.7411 2.3345 11.6133 2.04458 11.3941 1.83171C11.1748 1.61885 10.8812 1.49979 10.5756 1.49979C10.2699 1.49979 9.97635 1.61885 9.75706 1.83171C9.53777 2.04458 9.41004 2.3345 9.40096 2.63998V6.1695C9.40068 6.48107 9.52405 6.78003 9.74397 7.00074C9.9639 7.22144 10.2624 7.34587 10.574 7.34669Z" fill="#FC6552"/>
<path d="M6.2192 8.1751C6.43946 8.39536 6.73819 8.5191 7.04968 8.5191C7.36117 8.5191 7.6599 8.39536 7.88015 8.1751C8.10041 7.95485 8.22414 7.65612 8.22414 7.34463C8.22414 7.03314 8.10041 6.73441 7.88015 6.51416L5.38873 4.02274C5.16847 3.80248 4.86974 3.67874 4.55826 3.67874C4.24677 3.67874 3.94804 3.80248 3.72778 4.02274C3.50753 4.24299 3.38379 4.54172 3.38379 4.85321C3.38379 5.1647 3.50753 5.46343 3.72778 5.68368L6.2192 8.1751Z" fill="#FC6552"/>
<path d="M3.50564 12.0451H7.02788C7.18507 12.0498 7.3416 12.0228 7.48819 11.9659C7.63479 11.909 7.76846 11.8232 7.8813 11.7137C7.99414 11.6042 8.08385 11.4731 8.1451 11.3282C8.20636 11.1834 8.23793 11.0278 8.23793 10.8705C8.23793 10.7132 8.20636 10.5576 8.1451 10.4127C8.08385 10.2679 7.99414 10.1368 7.8813 10.0273C7.76846 9.91777 7.63479 9.832 7.48819 9.77507C7.3416 9.71814 7.18507 9.69122 7.02788 9.69589H3.50564C3.34845 9.69122 3.19192 9.71814 3.04533 9.77507C2.89873 9.832 2.76506 9.91777 2.65222 10.0273C2.53938 10.1368 2.44967 10.2679 2.38842 10.4127C2.32716 10.5576 2.29559 10.7132 2.29559 10.8705C2.29559 11.0278 2.32716 11.1834 2.38842 11.3282C2.44967 11.4731 2.53938 11.6042 2.65222 11.7137C2.76506 11.8232 2.89873 11.909 3.04533 11.9659C3.19192 12.0228 3.34845 12.0498 3.50564 12.0451Z" fill="#FC6552"/>
</svg>
