<svg width="24" height="24" viewBox="0 0 24 24" fill="none" xmlns="http://www.w3.org/2000/svg">
<path d="M18.027 22.5C17.908 22.5 17.7885 22.4702 17.6791 22.41L12 19.2822L6.32102 22.41C6.06898 22.5487 5.76364 22.5256 5.53332 22.3503C5.30295 22.175 5.18764 21.8779 5.23575 21.5838L6.3203 14.959L1.72589 10.2673C1.52202 10.0591 1.44866 9.74771 1.53662 9.46412C1.62458 9.18046 1.85866 8.97372 2.14044 8.93078L8.48982 7.96428L11.3293 1.9368C11.4553 1.66932 11.7153 1.5 12 1.5C12.2847 1.5 12.5448 1.66932 12.6707 1.9368L15.5102 7.96428L21.8595 8.93078C22.1413 8.97372 22.3753 9.1804 22.4633 9.46412C22.5514 9.74771 22.478 10.0591 22.2741 10.2673L17.6796 14.9591L18.7642 21.5839C18.8123 21.8778 18.697 22.1751 18.4666 22.3504C18.3364 22.4495 18.1821 22.5 18.027 22.5ZM3.85531 10.2535L7.64611 14.1245C7.82239 14.3044 7.90287 14.5639 7.86117 14.818L6.9663 20.284L11.6519 17.7032C11.8698 17.5832 12.1301 17.5832 12.3481 17.7032L17.0337 20.2838L16.1387 14.818C16.0972 14.5637 16.1776 14.3044 16.3539 14.1245L20.1447 10.2535L14.906 9.45597C14.6624 9.41886 14.4518 9.25863 14.3428 9.02732L12.0001 4.05416L9.6573 9.02732C9.54839 9.25857 9.33771 9.41886 9.09411 9.45597L3.85531 10.2535Z" fill="white"/>
</svg>
