<svg width="20" height="20" viewBox="0 0 20 20" fill="none" xmlns="http://www.w3.org/2000/svg">
<path d="M7.87986 16.1438C8.19669 15.827 8.19669 15.3133 7.87986 14.9965L4.07281 11.1895L17.9388 11.1895C18.3868 11.1895 18.75 10.8262 18.75 10.3782C18.75 9.93018 18.3868 9.56701 17.9388 9.56701L4.07281 9.56701L7.87973 5.75997C8.1965 5.44306 8.1965 4.92945 7.87973 4.61268C7.56289 4.29578 7.04928 4.29578 6.73244 4.61268L1.54064 9.80461C1.38229 9.9629 1.30305 10.1706 1.30305 10.3783C1.30305 10.5859 1.38229 10.7934 1.54064 10.9519L6.73257 16.1438C7.04941 16.4607 7.56302 16.4607 7.87986 16.1438Z" fill="white"/>
</svg>
