<svg width="16" height="16" viewBox="0 0 16 16" fill="none" xmlns="http://www.w3.org/2000/svg">
<path d="M13.9825 6.98256H9.01701V2.01744C9.01701 1.7476 8.9098 1.48881 8.71898 1.298C8.52816 1.10719 8.26935 1 7.99949 1C7.72963 1 7.47082 1.10719 7.28 1.298C7.08918 1.48881 6.98198 1.7476 6.98198 2.01744V6.98256H2.01752C1.74765 6.98256 1.48885 7.08975 1.29803 7.28056C1.1072 7.47137 1 7.73016 1 8C1 8.26984 1.1072 8.52863 1.29803 8.71944C1.48885 8.91025 1.74765 9.01744 2.01752 9.01744H6.98198V13.9826C6.98198 14.2524 7.08918 14.5112 7.28 14.702C7.47082 14.8928 7.72963 15 7.99949 15C8.26935 15 8.52816 14.8928 8.71898 14.702C8.9098 14.5112 9.01701 14.2524 9.01701 13.9826V9.01744H13.9825C14.2523 9.01744 14.5112 8.91025 14.702 8.71944C14.8928 8.52863 15 8.26984 15 8C15 7.73016 14.8928 7.47137 14.702 7.28056C14.5112 7.08975 14.2523 6.98256 13.9825 6.98256Z" fill="#FC6C54"/>
</svg>
