<svg width="39" height="36" viewBox="0 0 39 36" fill="none" xmlns="http://www.w3.org/2000/svg">
<path d="M10.2067 22.8988C10.3327 22.826 10.4342 22.7176 10.4986 22.5871C10.5629 22.4567 10.5871 22.3101 10.5681 22.1659C10.5491 22.0217 10.4878 21.8864 10.3919 21.777C10.296 21.6676 10.1699 21.5892 10.0294 21.5515C9.8889 21.5138 9.7404 21.5187 9.60266 21.5654C9.46493 21.6122 9.34414 21.6987 9.25557 21.814C9.16701 21.9294 9.11464 22.0685 9.10509 22.2136C9.09554 22.3587 9.12924 22.5034 9.20192 22.6294C9.2502 22.7131 9.31449 22.7864 9.39112 22.8453C9.46775 22.9041 9.55521 22.9472 9.64852 22.9723C9.74184 22.9973 9.83916 23.0037 9.93494 22.991C10.0307 22.9784 10.1231 22.9471 10.2067 22.8988Z" fill="#FC6552"/>
<path d="M14.5992 32.2565C14.5992 32.2565 13.8077 35.0742 11.73 30.8684C9.99344 27.3556 6.52946 23.0652 8.02703 20.6584C10.2067 17.1531 13.5337 17.8646 17.0078 14.1488C21.5943 9.24236 22.0411 2.38885 22.0411 2.38885L18.9798 3.12431L14.135 9.14583L9.839 15.2345L1.06228 20.0066L0.577805 24.1987L2.83105 27.3446L7.92866 26.7324L11.73 34.8793L14.7785 35.1606L15.6574 33.4011L14.5992 32.2565Z" fill="#FFE2A3"/>
<path d="M31.0035 17.724L28.6023 13.565L30.1173 11.2667C30.2073 11.1313 30.2575 10.9734 30.2622 10.8109C30.267 10.6483 30.226 10.4878 30.1439 10.3474L28.673 7.80272C28.5926 7.66182 28.4742 7.54636 28.3313 7.46947C28.1885 7.39259 28.0269 7.35739 27.865 7.36789L25.1199 7.53244L22.4493 2.90828C22.2477 2.55433 21.9566 2.25962 21.6052 2.05372C21.2537 1.84782 20.8543 1.73799 20.447 1.73524H20.4185C20.0262 1.73433 19.6401 1.83232 19.2958 2.02016C18.9514 2.208 18.66 2.47962 18.4484 2.80992L8.86177 15.024L2.63892 18.6166C1.42605 19.3187 0.541455 20.4735 0.179468 21.8273C-0.18252 23.1811 0.00770478 24.6233 0.708352 25.837C1.3371 26.9164 2.3262 27.7396 3.50181 28.162C4.67742 28.5843 5.96429 28.5788 7.13621 28.1463L10.7767 34.4629C10.9784 34.8115 11.2467 35.1169 11.5665 35.3617C11.8862 35.6065 12.2511 35.7859 12.6402 35.8897C12.9065 35.9625 13.1813 35.9996 13.4574 36C13.9973 35.9983 14.5273 35.8548 14.9943 35.5838C15.4613 35.3128 15.8488 34.9238 16.1181 34.4558C16.3874 33.9878 16.5289 33.4573 16.5286 32.9174C16.5282 32.3775 16.386 31.8471 16.1161 31.3795L13.9787 27.6765L15.7658 26.6423C15.8655 26.5849 15.9528 26.5085 16.0228 26.4174C16.0928 26.3262 16.1442 26.2222 16.1739 26.1111C16.2036 26.0001 16.2111 25.8843 16.196 25.7704C16.1809 25.6564 16.1434 25.5466 16.0858 25.4472L15.2262 23.9579L29.1134 21.233C29.5124 21.2095 29.8988 21.0843 30.2358 20.8693C30.5728 20.6543 30.8492 20.3567 31.0387 20.0047C31.2283 19.6528 31.3246 19.2582 31.3186 18.8585C31.3126 18.4588 31.2044 18.0673 31.0044 17.7212L31.0035 17.724ZM26.0971 9.22491L27.431 9.14493L28.3605 10.7574L27.625 11.8735L26.0971 9.22491ZM28.753 19.5268L28.6611 19.5461L19.7051 4.03812L19.7915 3.92872C19.8342 3.87804 19.8735 3.8246 19.9092 3.76876C19.9632 3.68041 20.0392 3.60761 20.1298 3.55748C20.2204 3.50736 20.3225 3.48164 20.426 3.48285C20.5296 3.48405 20.631 3.51214 20.7204 3.56436C20.8098 3.61658 20.8841 3.69113 20.9361 3.78071L29.4912 18.5973C29.5428 18.6872 29.5702 18.7888 29.5707 18.8924C29.5713 18.996 29.5449 19.0979 29.4942 19.1882C29.4435 19.2786 29.3703 19.3542 29.2816 19.4077C29.1929 19.4613 29.0919 19.4909 28.9884 19.4937C28.909 19.4967 28.8302 19.5078 28.753 19.5268ZM10.4963 15.7704L18.5431 5.51914L26.8464 19.9009L14.3014 22.361L10.4963 15.7704ZM14.135 25.5667L13.0998 26.1642L12.5023 25.1291L13.5365 24.5315L14.135 25.5667ZM10.99 26.0052L14.5579 32.1848C14.567 32.2014 14.5772 32.2188 14.5891 32.2363C14.5902 32.2403 14.5921 32.2441 14.5946 32.2473V32.2529C14.769 32.559 14.815 32.9216 14.7228 33.2616C14.6306 33.6016 14.4075 33.8912 14.1024 34.0672C13.7972 34.2432 13.4348 34.2913 13.0943 34.201C12.7539 34.1106 12.463 33.8891 12.2853 33.585L8.67699 27.3336L10.99 26.0052ZM2.21695 24.9664C1.98421 24.5639 1.83308 24.1196 1.77223 23.6587C1.71137 23.1979 1.74196 22.7295 1.86227 22.2805C1.98258 21.8314 2.19023 21.4105 2.47335 21.0418C2.75648 20.6731 3.10951 20.3638 3.51227 20.1317L9.12469 16.8911L12.6641 23.022L7.05623 26.2626C6.24219 26.7318 5.27513 26.8586 4.36766 26.615C3.46019 26.3714 2.6866 25.7774 2.21695 24.9636V24.9664Z" fill="#FC6552"/>
<path d="M7.92867 23.3649C7.88039 23.2813 7.8161 23.2079 7.73947 23.1491C7.66284 23.0903 7.57537 23.0471 7.48206 23.0221C7.38875 22.9971 7.29143 22.9907 7.19565 23.0033C7.09987 23.0159 7.00751 23.0473 6.92386 23.0956L5.64968 23.831C5.56591 23.8798 5.47332 23.9115 5.37725 23.9243C5.28119 23.9371 5.18353 23.9309 5.08989 23.9058C4.99626 23.8808 4.9085 23.8375 4.83165 23.7784C4.7548 23.7194 4.69039 23.6457 4.64211 23.5617C4.59525 23.4754 4.53157 23.3993 4.45484 23.338C4.3781 23.2767 4.28987 23.2314 4.19534 23.2048C4.10082 23.1781 4.00191 23.1707 3.90446 23.1829C3.80701 23.1951 3.71299 23.2267 3.62794 23.2758C3.5429 23.3249 3.46856 23.3906 3.4093 23.4689C3.35004 23.5472 3.30707 23.6366 3.28292 23.7318C3.25878 23.827 3.25394 23.926 3.2687 24.0231C3.28346 24.1202 3.31751 24.2134 3.36886 24.2971C3.51369 24.5489 3.70681 24.7696 3.93713 24.9465C4.16745 25.1235 4.43045 25.2532 4.71103 25.3283C4.99161 25.4034 5.28425 25.4223 5.57216 25.384C5.86008 25.3457 6.1376 25.251 6.38881 25.1052L7.66299 24.3697C7.74666 24.3215 7.82001 24.2572 7.87883 24.1805C7.93766 24.1039 7.98081 24.0164 8.00583 23.9231C8.03084 23.8298 8.03723 23.7325 8.02462 23.6367C8.01201 23.5409 7.98065 23.4486 7.93234 23.3649H7.92867Z" fill="#FC6552"/>
<path d="M37.8965 3.61983C37.7721 3.39613 37.5638 3.23104 37.3176 3.16087C37.0715 3.0907 36.8075 3.1212 36.5838 3.24566L32.4855 5.52649C32.3187 5.61937 32.1833 5.75959 32.0962 5.92944C32.0092 6.09928 31.9744 6.29112 31.9963 6.48071C32.0183 6.6703 32.0959 6.84914 32.2195 6.99461C32.343 7.14008 32.5069 7.24566 32.6905 7.29801C32.8125 7.33341 32.9404 7.34416 33.0667 7.32964C33.193 7.31512 33.3151 7.27562 33.4259 7.21343L37.5233 4.93261C37.7468 4.80796 37.9117 4.59972 37.9819 4.3536C38.052 4.10748 38.0217 3.84358 37.8975 3.61983H37.8965Z" fill="#FC6552"/>
<path d="M36.3254 10.842L33.4838 10.0808C33.2366 10.0148 32.9733 10.0495 32.7517 10.1774C32.53 10.3053 32.3682 10.5159 32.3016 10.7629C32.2353 11.0102 32.2699 11.2736 32.3979 11.4953C32.5258 11.717 32.7365 11.8788 32.9837 11.9452L35.8262 12.7064C35.9074 12.7287 35.9912 12.7398 36.0754 12.7395C36.244 12.7388 36.4096 12.6939 36.5555 12.6094C36.7015 12.5248 36.8227 12.4035 36.9071 12.2575C36.9916 12.1115 37.0363 11.9459 37.0368 11.7772C37.0373 11.6085 36.9937 11.4427 36.9101 11.2962C36.8476 11.1855 36.7638 11.0883 36.6634 11.0104C36.563 10.9324 36.4481 10.8752 36.3254 10.842Z" fill="#FC6552"/>
<path d="M30.0851 0.0326586C29.8378 -0.0333346 29.5743 0.00153014 29.3527 0.129597C29.131 0.257665 28.9692 0.468465 28.9029 0.715711L28.1407 3.55732C28.1046 3.68078 28.0935 3.81022 28.1081 3.93804C28.1227 4.06585 28.1627 4.18946 28.2257 4.30159C28.2888 4.41373 28.3736 4.51213 28.4752 4.59102C28.5769 4.6699 28.6932 4.72768 28.8175 4.76095C28.9418 4.79422 29.0714 4.80232 29.1989 4.78477C29.3263 4.76721 29.449 4.72436 29.5596 4.65873C29.6702 4.5931 29.7667 4.50602 29.8432 4.4026C29.9197 4.29918 29.9747 4.18151 30.0051 4.05651L30.7672 1.2149C30.8003 1.09248 30.8089 0.964736 30.7925 0.838995C30.7761 0.713253 30.735 0.591987 30.6716 0.482152C30.6083 0.372316 30.5238 0.276071 30.4232 0.198937C30.3225 0.121802 30.2076 0.0652964 30.0851 0.0326586Z" fill="#FC6552"/>
</svg>
