<svg width="118" height="45" viewBox="0 0 118 45" fill="none" xmlns="http://www.w3.org/2000/svg">
<path d="M9.31228 39.973V43.2095C9.31076 43.5404 9.17949 43.8572 8.94704 44.0912C8.71459 44.3251 8.39976 44.4572 8.07102 44.4588H1.24125C0.912516 44.4572 0.597681 44.3251 0.365229 44.0912C0.132778 43.8572 0.00151842 43.5404 0 43.2095V18.6595C0.00150344 18.3281 0.132577 18.0106 0.364868 17.7758C0.59716 17.5409 0.911988 17.4075 1.24125 17.4044H10.5593C18.4283 17.4044 22.764 19.3859 22.764 27.9566C22.764 36.5273 18.4687 38.7469 10.5593 38.7469C10.234 38.7483 9.9219 38.877 9.68917 39.1058C9.45643 39.3347 9.32127 39.6456 9.31228 39.973ZM9.31228 31.3267H10.1552C12.528 31.3267 13.3709 30.275 13.3709 27.9333C13.3709 25.4638 12.528 24.7781 10.1552 24.7781H9.31228V31.3267Z" fill="#FFB413"/>
<path d="M28.4276 18.7177C28.5092 18.3394 28.7169 18.0006 29.0162 17.7576C29.3155 17.5145 29.6884 17.3817 30.0729 17.3812H41.4347C41.8241 17.3809 42.2022 17.5125 42.5081 17.755C42.8139 17.9975 43.0297 18.3366 43.1205 18.7177L48.4031 42.3612C48.4624 42.6113 48.4646 42.8718 48.4096 43.1229C48.3545 43.3741 48.2437 43.6094 48.0854 43.8113C47.927 44.0131 47.7253 44.1762 47.4954 44.2884C47.2654 44.4006 47.0132 44.4588 46.7577 44.4588H40.7939C40.4176 44.4529 40.0535 44.3238 39.7567 44.0911C39.4598 43.8583 39.2463 43.5346 39.1485 43.1689L39.0273 42.6401C38.9295 42.2744 38.716 41.9506 38.4191 41.7179C38.1223 41.4852 37.7582 41.3561 37.3819 41.3501H33.9699C33.5733 41.3416 33.1864 41.4746 32.8779 41.7256C32.5693 41.9765 32.359 42.3293 32.2841 42.7214L32.2033 43.0875C32.1305 43.4742 31.9255 43.823 31.6239 44.0735C31.3223 44.324 30.9431 44.4603 30.5521 44.4588H24.8943C24.642 44.4607 24.3926 44.4052 24.1646 44.2964C23.9366 44.1876 23.736 44.0283 23.5778 43.8305C23.4196 43.6327 23.3078 43.4015 23.2509 43.1541C23.1939 42.9067 23.1933 42.6495 23.2489 42.4019L28.4276 18.7177ZM35.292 24.7375L34.0911 32.2158C34.0312 32.4717 34.0296 32.7379 34.0864 32.9946C34.1431 33.2512 34.2569 33.4916 34.419 33.6977C34.5812 33.9039 34.7875 34.0704 35.0227 34.1849C35.2579 34.2994 35.5157 34.3589 35.7769 34.3589C36.0382 34.3589 36.296 34.2994 36.5312 34.1849C36.7663 34.0704 36.9727 33.9039 37.1349 33.6977C37.297 33.4916 37.4107 33.2512 37.4675 32.9946C37.5243 32.7379 37.5227 32.4717 37.4627 32.2158L36.3081 24.7375H35.292Z" fill="#FFB413"/>
<path d="M48.7437 19.322C48.7406 19.0663 48.7884 18.8125 48.8842 18.5756C48.98 18.3388 49.1219 18.1236 49.3016 17.9427C49.4812 17.7619 49.695 17.619 49.9304 17.5226C50.1657 17.4262 50.4179 17.3781 50.672 17.3812H66.9295C67.1804 17.3828 67.4285 17.4343 67.6595 17.5328C67.8905 17.6314 68.0999 17.7751 68.2754 17.9555C68.4509 18.136 68.5892 18.3496 68.6822 18.5842C68.7752 18.8187 68.8212 19.0695 68.8173 19.322V23.1222C68.8181 23.3719 68.7698 23.6193 68.6752 23.8502C68.5806 24.0811 68.4416 24.2908 68.2661 24.4674C68.0906 24.644 67.8822 24.784 67.6528 24.8792C67.4235 24.9744 67.1776 25.023 66.9295 25.0222H65.4862C65.235 25.023 64.9866 25.074 64.7552 25.1723C64.5238 25.2706 64.3142 25.4142 64.1385 25.5948C63.9628 25.7754 63.8246 25.9894 63.7319 26.2243C63.6391 26.4592 63.5937 26.7103 63.5983 26.963V42.5588C63.5991 42.8085 63.5508 43.0559 63.4562 43.2868C63.3616 43.5177 63.2225 43.7274 63.0471 43.904C62.8716 44.0806 62.6632 44.2206 62.4338 44.3158C62.2044 44.411 61.9586 44.4596 61.7105 44.4588H56.1739C55.9258 44.4596 55.6799 44.411 55.4505 44.3158C55.2211 44.2206 55.0127 44.0806 54.8373 43.904C54.6618 43.7274 54.5228 43.5177 54.4282 43.2868C54.3336 43.0559 54.2853 42.8085 54.286 42.5588V26.963C54.2906 26.7103 54.2452 26.4592 54.1525 26.2243C54.0597 25.9894 53.9215 25.7754 53.7458 25.5948C53.5701 25.4142 53.3605 25.2706 53.1291 25.1723C52.8978 25.074 52.6493 25.023 52.3982 25.0222H50.6662C50.4151 25.0269 50.1656 24.9812 49.9322 24.8878C49.6988 24.7945 49.4862 24.6554 49.3068 24.4785C49.1274 24.3017 48.9846 24.0907 48.887 23.8579C48.7893 23.625 48.7386 23.3749 48.7379 23.1222L48.7437 19.322Z" fill="#FFB413"/>
<path d="M74.683 18.7177C74.7647 18.3394 74.9723 18.0006 75.2716 17.7576C75.5709 17.5145 75.9438 17.3817 76.3284 17.3812H87.6902C88.0779 17.3869 88.4531 17.5208 88.7578 17.7623C89.0624 18.0038 89.2797 18.3396 89.376 18.7177L94.6354 42.3612C94.6947 42.6113 94.6969 42.8718 94.6419 43.1229C94.5869 43.3741 94.476 43.6094 94.3177 43.8113C94.1594 44.0131 93.9576 44.1762 93.7277 44.2884C93.4978 44.4006 93.2455 44.4588 92.99 44.4588H87.0493C86.6731 44.4529 86.309 44.3238 86.0121 44.0911C85.7152 43.8583 85.5017 43.5346 85.4039 43.1689L85.2827 42.6401C85.1849 42.2744 84.9714 41.9506 84.6746 41.7179C84.3777 41.4852 84.0136 41.3561 83.6373 41.3501H80.2196C79.8232 41.3427 79.437 41.4762 79.1287 41.727C78.8203 41.9777 78.6097 42.3299 78.5338 42.7214L78.4529 43.0875C78.3814 43.4737 78.1775 43.8224 77.8769 44.073C77.5763 44.3235 77.1979 44.46 76.8076 44.4588H71.1497C70.8974 44.4607 70.648 44.4052 70.42 44.2964C70.192 44.1876 69.9914 44.0283 69.8332 43.8305C69.675 43.6327 69.5632 43.4015 69.5063 43.1541C69.4493 42.9067 69.4487 42.6495 69.5044 42.4019L74.683 18.7177ZM81.5474 24.7375L80.3408 32.2158C80.283 32.4711 80.2831 32.7362 80.341 32.9915C80.399 33.2467 80.5133 33.4855 80.6755 33.6902C80.8378 33.8949 81.0437 34.0602 81.2781 34.1738C81.5125 34.2874 81.7693 34.3463 82.0295 34.3463C82.2896 34.3463 82.5464 34.2874 82.7808 34.1738C83.0152 34.0602 83.2212 33.8949 83.3834 33.6902C83.5456 33.4855 83.66 33.2467 83.7179 32.9915C83.7759 32.7362 83.776 32.4711 83.7182 32.2158L82.5635 24.7375H81.5474Z" fill="#FFB413"/>
<path d="M116.643 23.1222C116.603 24.3366 115.639 24.9816 114.513 24.9816C111.782 24.6968 109.732 24.5748 108.33 24.5748C107.323 24.5354 106.316 24.5762 105.316 24.6968C105.195 24.7362 105.091 24.8145 105.019 24.9195C104.947 25.0245 104.911 25.1505 104.918 25.2779C104.923 25.4265 104.972 25.5702 105.057 25.6918C105.142 25.8134 105.26 25.9078 105.397 25.9636C106.377 26.317 107.385 26.5872 108.41 26.7712C111.418 27.4162 116.199 28.3866 117.243 31.8207C117.564 33.0885 117.712 34.3943 117.682 35.7022C117.682 42.8144 113.589 44.9992 107.042 44.9992C103.759 45.0193 100.484 44.6527 97.2853 43.9068C96.8448 43.8071 96.4539 43.5531 96.1821 43.1902C95.9104 42.8273 95.7755 42.3791 95.8016 41.9254L96.0036 38.439C96.0424 37.9487 96.2615 37.4905 96.6181 37.1541C96.9748 36.8178 97.4432 36.6274 97.9319 36.6203C100.672 37.0084 103.433 37.2239 106.199 37.2653C107.608 37.2653 108.289 36.9457 108.289 36.3356C108.282 36.199 108.23 36.0686 108.143 35.9638C108.055 35.8591 107.937 35.7857 107.804 35.7545C106.948 35.5265 106.075 35.3634 105.195 35.2664C101.465 34.6853 98.8903 33.7324 97.5682 32.4831C96.2461 31.2338 95.5187 29.2059 95.5187 26.3354C95.5187 18.9036 99.2136 16.8409 106.159 16.8409C109.158 16.8728 112.151 17.1292 115.113 17.6079H115.154C115.609 17.6974 116.019 17.9446 116.312 18.3066C116.605 18.6685 116.763 19.1223 116.759 19.5893L116.643 23.1222Z" fill="#FFB413"/>
<path fill-rule="evenodd" clip-rule="evenodd" d="M55.3655 3.57744C54.9819 3.40045 54.5637 3.3123 54.1417 3.31946C53.8437 3.32928 53.5519 3.40772 53.2886 3.54874C53.0254 3.68976 52.7978 3.88961 52.6233 4.13295V1.18114C52.6319 1.02631 52.6319 0.871122 52.6233 0.716292C52.6048 0.591665 52.5637 0.47152 52.5021 0.361843C52.4648 0.294075 52.4145 0.234488 52.354 0.186591C52.2935 0.138693 52.2241 0.103449 52.1499 0.0829299C51.9343 0.0203146 51.7102 -0.00714916 51.486 0.00158123C51.2561 -0.00704325 51.0263 0.0204012 50.8047 0.0829299C50.731 0.102767 50.6619 0.137116 50.6015 0.183993C50.541 0.230869 50.4904 0.289343 50.4526 0.356031C50.3944 0.464665 50.3553 0.582619 50.3371 0.704669C50.3255 0.85746 50.3255 1.01092 50.3371 1.16371V9.17659C50.3252 9.33131 50.3252 9.48672 50.3371 9.64144C50.357 9.76308 50.396 9.88076 50.4526 9.99008C50.4893 10.0589 50.5393 10.1196 50.5998 10.1685C50.6604 10.2175 50.73 10.2536 50.8047 10.2748C51.2467 10.3832 51.708 10.3832 52.1499 10.2748C52.2241 10.2543 52.2935 10.219 52.354 10.1711C52.4145 10.1232 52.4648 10.0637 52.5021 9.99589C52.5634 9.89021 52.6045 9.77394 52.6233 9.65306C52.6319 9.49823 52.6319 9.34304 52.6233 9.18821V6.60828C52.6704 6.34586 52.8175 6.11234 53.0332 5.95749C53.2673 5.76917 53.5591 5.66853 53.8588 5.67277C54.0037 5.66679 54.1483 5.69106 54.2834 5.74406C54.4185 5.79706 54.5413 5.87764 54.644 5.98073C54.7493 6.09515 54.8307 6.22975 54.8833 6.3765C54.9358 6.52324 54.9585 6.67914 54.95 6.8349V9.15916V9.64144C54.9717 9.76607 55.0147 9.88598 55.077 9.99589C55.1142 10.0637 55.1646 10.1232 55.2251 10.1711C55.2855 10.219 55.3549 10.2543 55.4291 10.2748C55.6434 10.3342 55.8651 10.3616 56.0873 10.3561C56.3171 10.3626 56.5466 10.3352 56.7685 10.2748C56.8427 10.2543 56.9121 10.219 56.9726 10.1711C57.0331 10.1232 57.0834 10.0637 57.1207 9.99589C57.182 9.89021 57.2231 9.77394 57.2419 9.65306C57.2499 9.49821 57.2499 9.34305 57.2419 9.18821V6.82909C57.2675 5.918 56.9522 5.03046 56.3586 4.34213C56.0886 4.01573 55.7492 3.75442 55.3655 3.57744ZM10.6517 3.13354C11.6106 3.12699 12.5335 3.50063 13.2208 4.17364C13.8205 4.7638 14.2015 5.54283 14.3002 6.38116C14.3989 7.21948 14.2095 8.06656 13.7635 8.78148C13.4206 9.32286 12.9403 9.76219 12.3721 10.054C11.5581 10.4789 10.6162 10.5839 9.72954 10.3487C8.84286 10.1135 8.07475 9.55494 7.57451 8.78148C7.19057 8.21518 6.98901 7.5437 6.99719 6.85816C6.98488 6.36214 7.07792 5.86919 7.27007 5.41225C7.46222 4.95532 7.74906 4.54492 8.11143 4.20851C8.78389 3.52659 9.6971 3.14015 10.6517 3.13354ZM9.78568 7.78205C10.0292 7.98717 10.3342 8.10383 10.6517 8.11326C10.9732 8.10166 11.2818 7.98314 11.5292 7.77624C11.6651 7.65213 11.7743 7.50122 11.8499 7.33288C11.9255 7.16453 11.9658 6.98236 11.9686 6.79765C11.9713 6.61294 11.9362 6.42964 11.8656 6.25913C11.795 6.08861 11.6903 5.93453 11.5581 5.80643C11.297 5.59804 10.9733 5.48533 10.6401 5.48685C10.3222 5.49351 10.0162 5.61051 9.77413 5.81806C9.63297 5.937 9.52212 6.08818 9.45082 6.25901C9.37951 6.42983 9.34982 6.61533 9.36423 6.80005C9.35025 6.98669 9.38127 7.17397 9.45465 7.34596C9.52802 7.51794 9.64159 7.66954 9.78568 7.78787V7.78205ZM4.39923 7.81108C4.59249 7.66022 4.82118 7.56215 5.06315 7.52636C5.32872 7.52636 5.64048 7.7646 6.03306 8.23526C6.21005 8.42645 6.31784 8.6721 6.33905 8.93254C6.33905 9.27537 6.09657 9.58914 5.61161 9.88548C5.05995 10.2536 4.40842 10.4404 3.74685 10.4201C3.33011 10.418 2.91727 10.3392 2.52869 10.1876C2.11341 10.0254 1.7243 9.80222 1.37404 9.52522C0.992016 9.21261 0.687609 8.81471 0.484953 8.36309C0.250551 7.86586 0.132075 7.32131 0.138558 6.77098C0.132849 6.23192 0.251419 5.69887 0.484953 5.21373C0.687741 4.76378 0.989841 4.36632 1.36826 4.0516C1.71547 3.77153 2.10539 3.5498 2.52292 3.395C3.22321 3.12605 3.99176 3.09544 4.71098 3.30784C4.95635 3.37105 5.19294 3.46474 5.41532 3.58674L5.62894 3.72039C5.79058 3.82498 5.91181 3.91213 5.99263 3.97024L5.99265 3.97025C6.08756 4.043 6.16955 4.13141 6.23513 4.23173C6.3084 4.34158 6.34667 4.47131 6.34482 4.60361C6.32426 4.87471 6.22821 5.13449 6.0677 5.35318C5.75017 5.84127 5.44419 6.09113 5.14975 6.09113C4.88808 6.0557 4.63971 5.95371 4.4281 5.79479C4.23165 5.62972 3.97891 5.5484 3.72376 5.56818C3.42479 5.57276 3.13762 5.6863 2.9155 5.88776C2.79582 6.00179 2.7005 6.13918 2.63536 6.29154C2.57022 6.4439 2.53662 6.60802 2.53662 6.77388C2.53662 6.93975 2.57022 7.10387 2.63536 7.25623C2.7005 7.40859 2.79582 7.54598 2.9155 7.66001C3.13585 7.86061 3.42091 7.97414 3.71798 7.97959C3.84903 7.97913 3.97932 7.95955 4.10479 7.92148C4.1885 7.8989 4.26832 7.86364 4.3415 7.81689L4.39923 7.81108ZM23.9353 3.50737C23.6268 3.36068 23.2899 3.2846 22.9487 3.2846C22.6208 3.28852 22.2998 3.38081 22.0192 3.55188C21.8185 3.68626 21.6344 3.84426 21.4708 4.02255C21.3442 4.1559 21.2265 4.29761 21.1186 4.44672C20.9246 4.07994 20.6313 3.77605 20.2726 3.57034C19.9139 3.36464 19.5046 3.26556 19.0922 3.2846C18.7524 3.29117 18.4232 3.40499 18.1512 3.60999C18.0394 3.69806 17.9369 3.79735 17.8452 3.90633C17.749 4.01867 17.6854 4.09421 17.6547 4.13295L17.5911 4.23173C17.6077 3.97884 17.5271 3.7292 17.366 3.53445C17.1122 3.34533 16.7965 3.26018 16.4827 3.29621C16.2547 3.28714 16.0267 3.3146 15.8072 3.37756C15.7324 3.39671 15.6622 3.43074 15.6008 3.47764C15.5393 3.52455 15.4878 3.58338 15.4493 3.65066C15.383 3.75658 15.3397 3.87539 15.3223 3.9993C15.3109 4.1521 15.3109 4.30554 15.3223 4.45834V9.17659C15.3103 9.33131 15.3103 9.48672 15.3223 9.64144C15.3421 9.76308 15.3811 9.88077 15.4377 9.99008C15.475 10.0595 15.526 10.1206 15.5876 10.1695C15.6491 10.2185 15.7199 10.2543 15.7957 10.2748C16.0119 10.3342 16.2355 10.3616 16.4596 10.3561C16.6875 10.3623 16.915 10.3349 17.1351 10.2748C17.2114 10.2557 17.283 10.2211 17.3455 10.1731C17.4081 10.1252 17.4602 10.0649 17.4988 9.99589C17.5588 9.88908 17.6017 9.77337 17.6258 9.65306C17.6337 9.49821 17.6337 9.34306 17.6258 9.18821V6.8349C17.6258 6.05627 17.8683 5.67277 18.4225 5.67277C18.9767 5.67277 19.2481 6.05627 19.2481 6.8349V9.15916C19.2365 9.31389 19.2365 9.46927 19.2481 9.62401C19.2674 9.74764 19.3063 9.86733 19.3635 9.97846C19.4002 10.049 19.451 10.1112 19.5125 10.1611C19.5741 10.2111 19.6452 10.2478 19.7215 10.269C19.9367 10.334 20.1609 10.3634 20.3854 10.3561C20.6133 10.3623 20.8409 10.3349 21.0609 10.2748C21.2143 10.2312 21.3448 10.1291 21.4246 9.99008C21.4852 9.88203 21.5263 9.76397 21.5458 9.64144C21.5577 9.48672 21.5577 9.33131 21.5458 9.17659V6.85233C21.5312 6.55435 21.5886 6.25724 21.7133 5.98655C21.7772 5.87935 21.8707 5.79316 21.9825 5.73849C22.0942 5.68381 22.2193 5.663 22.3425 5.67858C22.891 5.67858 23.1681 6.06209 23.1681 6.84071V9.16497C23.1566 9.3197 23.1566 9.47508 23.1681 9.62982C23.1874 9.75345 23.2264 9.87315 23.2836 9.98427C23.3197 10.0542 23.3695 10.116 23.43 10.166C23.4906 10.2159 23.5606 10.2529 23.6358 10.2748C23.853 10.3393 24.0791 10.3687 24.3055 10.362C24.5334 10.3681 24.7609 10.3407 24.9809 10.2806C25.0556 10.2594 25.1253 10.2233 25.1858 10.1744C25.2463 10.1254 25.2964 10.0647 25.3331 9.99589C25.3947 9.88621 25.4358 9.76607 25.4543 9.64144C25.4629 9.48855 25.4629 9.33529 25.4543 9.1824V6.85814C25.4543 5.59142 25.2119 4.71401 24.7327 4.13295C24.516 3.8677 24.2437 3.65405 23.9353 3.50737ZM26.5166 12.2679V4.44674C26.5086 4.29577 26.5086 4.14448 26.5166 3.99351C26.5407 3.87404 26.5816 3.75862 26.6379 3.65068C26.7116 3.51838 26.8339 3.42037 26.9785 3.37758C27.19 3.31439 27.4104 3.2869 27.6309 3.29623C27.9234 3.2696 28.2172 3.33238 28.4738 3.47636C28.5567 3.53853 28.6254 3.61792 28.6752 3.70915C28.725 3.80038 28.7548 3.90132 28.7624 4.00513C28.9367 3.76959 29.1672 3.58218 29.4327 3.46028C29.6981 3.33838 29.9898 3.28595 30.2808 3.30785C30.6873 3.31988 31.0868 3.41824 31.4529 3.59649C31.819 3.77473 32.1436 4.02884 32.4053 4.34215C32.7181 4.65155 32.9664 5.02054 33.1359 5.42757C33.3054 5.83461 33.3927 6.27155 33.3926 6.71289C33.4 7.61669 33.0536 8.4871 32.4284 9.13593C32.1649 9.44962 31.8382 9.70348 31.47 9.88077C31.1018 10.0581 30.7004 10.1547 30.2923 10.1644C30.009 10.1888 29.7239 10.1458 29.4601 10.0388C29.1964 9.93178 28.9613 9.76382 28.774 9.54848V12.2679C28.782 12.4188 28.782 12.5701 28.774 12.7211C28.7498 12.8406 28.709 12.956 28.6527 13.0639C28.579 13.1962 28.4567 13.2942 28.3121 13.337C28.1006 13.4002 27.8802 13.4277 27.6597 13.4184C27.4374 13.4276 27.2151 13.4001 27.0016 13.337C26.8558 13.297 26.7314 13.201 26.6552 13.0697C26.5982 12.9662 26.5574 12.8545 26.5339 12.7385C26.5196 12.5821 26.5139 12.425 26.5166 12.2679ZM29.1492 5.96332C28.9533 6.17706 28.8441 6.45695 28.8432 6.74775C28.8431 7.04096 28.9571 7.32254 29.1608 7.53219C29.2574 7.64795 29.3787 7.74041 29.5156 7.80276C29.6525 7.86511 29.8015 7.89576 29.9517 7.89245C30.1064 7.89336 30.2597 7.86297 30.4026 7.80307C30.5454 7.74318 30.6748 7.65502 30.7831 7.54381C30.8889 7.44042 30.9731 7.31668 31.0307 7.17994C31.0882 7.04321 31.1178 6.89624 31.1179 6.74775C31.1168 6.45136 31.0032 6.16658 30.8004 5.95169C30.6963 5.83617 30.5687 5.74467 30.4261 5.68349C30.2836 5.62231 30.1297 5.59289 29.9748 5.59724C29.8186 5.59104 29.663 5.62079 29.52 5.68423C29.3769 5.74766 29.2501 5.84312 29.1492 5.96332ZM40.638 3.37755C40.4204 3.31538 40.1944 3.28793 39.9683 3.2962C39.6676 3.26477 39.3643 3.32339 39.0966 3.46471C39.0105 3.53523 38.9406 3.6237 38.8918 3.72401C38.8429 3.82432 38.8163 3.9341 38.8137 4.04577C38.7412 3.94752 38.6601 3.85611 38.5712 3.77267C38.416 3.64342 38.2404 3.54129 38.0516 3.47052C37.7909 3.35826 37.5095 3.30281 37.226 3.30782C36.811 3.31917 36.403 3.41874 36.0289 3.6C35.6548 3.78126 35.323 4.04011 35.0553 4.35955C34.7388 4.67845 34.4881 5.05725 34.3176 5.4741C34.1472 5.89096 34.0604 6.33764 34.0623 6.7884C34.0537 7.71295 34.4061 8.60393 35.0437 9.26954C35.3127 9.59092 35.6462 9.85133 36.0223 10.0336C36.3985 10.2159 36.8087 10.3159 37.226 10.3271C37.5303 10.3536 37.8363 10.3025 38.1158 10.1786C38.3952 10.0547 38.6392 9.86199 38.8252 9.61818C38.8329 9.72199 38.8626 9.82293 38.9124 9.91416C38.9622 10.0054 39.0309 10.0848 39.1139 10.1469C39.3705 10.2909 39.6642 10.3537 39.9568 10.3271C40.1865 10.3328 40.416 10.3054 40.638 10.2457C40.7117 10.2259 40.7808 10.1915 40.8413 10.1447C40.9017 10.0978 40.9523 10.0393 40.9902 9.97263C41.0484 9.864 41.0874 9.74604 41.1057 9.62399C41.1172 9.46926 41.1172 9.31387 41.1057 9.15914V4.47576C41.1172 4.32103 41.1172 4.16564 41.1057 4.01091C41.0864 3.88727 41.0474 3.76758 40.9902 3.65646C40.9529 3.58869 40.9026 3.52911 40.8421 3.48121C40.7816 3.43332 40.7122 3.39807 40.638 3.37755ZM38.0319 7.8933C37.8931 7.95662 37.7421 7.98807 37.5897 7.98539C37.4307 7.98871 37.2728 7.95895 37.1257 7.89796C36.9787 7.83696 36.8458 7.74606 36.7353 7.63094C36.6271 7.52744 36.5408 7.40313 36.4812 7.26538C36.4217 7.12764 36.3903 6.97927 36.3889 6.82907C36.3933 6.52597 36.5108 6.23561 36.718 6.01558C36.8212 5.89289 36.9506 5.79522 37.0965 5.72982C37.2425 5.66443 37.4012 5.633 37.5609 5.63789C37.7208 5.63127 37.88 5.66191 38.0262 5.72742C38.1725 5.79293 38.3017 5.89155 38.4038 6.01558C38.6041 6.23442 38.7171 6.51994 38.7213 6.81745C38.7186 7.11748 38.6006 7.40481 38.3922 7.61932C38.2938 7.7364 38.1707 7.82999 38.0319 7.8933ZM46.0938 3.29621C46.5148 3.28951 46.932 3.3779 47.3147 3.55488C47.6974 3.73186 48.0357 3.99293 48.3049 4.31889C48.9014 5.01049 49.2186 5.90199 49.194 6.81746V9.17658C49.2056 9.32938 49.2056 9.48283 49.194 9.63563C49.1758 9.75768 49.1367 9.87563 49.0785 9.98426C49.0406 10.0526 48.9894 10.1126 48.9279 10.1605C48.8664 10.2084 48.7959 10.2434 48.7206 10.2632C48.5002 10.3209 48.2727 10.3464 48.0451 10.3387C47.8506 10.3457 47.6561 10.3242 47.4678 10.2748C47.3449 10.241 47.2281 10.188 47.1214 10.1179C47.0333 10.0494 46.9704 9.95329 46.9424 9.84481C46.9072 9.74532 46.8839 9.64192 46.8732 9.53685V9.15915V6.80584C46.8817 6.64872 46.8585 6.49148 46.805 6.34366C46.7514 6.19583 46.6685 6.0605 46.5614 5.94587C46.3264 5.74142 46.0262 5.62891 45.7156 5.62891C45.405 5.62891 45.1048 5.74142 44.8698 5.94587C44.7603 6.05565 44.6749 6.18739 44.6192 6.33254C44.5635 6.47769 44.5387 6.63301 44.5465 6.78841V9.15915C44.5551 9.31205 44.5551 9.4653 44.5465 9.61819C44.5288 9.74118 44.4876 9.85957 44.4253 9.96683C44.388 10.0346 44.3377 10.0942 44.2772 10.1421C44.2167 10.19 44.1473 10.2252 44.0731 10.2457C43.8527 10.3035 43.6252 10.3289 43.3977 10.3213C43.1739 10.3286 42.9502 10.3032 42.7337 10.2457C42.658 10.2252 42.5872 10.1894 42.5256 10.1405C42.4641 10.0915 42.4131 10.0305 42.3758 9.96102C42.3186 9.8499 42.2796 9.73021 42.2603 9.60657C42.2488 9.45184 42.2488 9.29646 42.2603 9.14172V4.41767C42.2492 4.26873 42.2492 4.11918 42.2603 3.97025C42.278 3.85 42.3213 3.73503 42.3873 3.63323C42.4264 3.56703 42.4782 3.5093 42.5396 3.46342C42.6011 3.41753 42.671 3.3844 42.7453 3.36594C42.9626 3.31374 43.1858 3.29029 43.4092 3.29621C43.6296 3.28813 43.8498 3.31559 44.0616 3.37756C44.2017 3.40898 44.3252 3.49185 44.408 3.60999C44.4593 3.6908 44.4982 3.77896 44.5234 3.87147C44.5308 3.96429 44.5308 4.05756 44.5234 4.15038C44.546 4.11745 44.5711 4.08637 44.5985 4.05741C44.5985 4.03586 44.636 4.00321 44.6878 3.95809C44.7198 3.93021 44.7573 3.89757 44.7948 3.85984C44.8964 3.76282 45.0065 3.6753 45.1239 3.59837C45.263 3.51062 45.4123 3.44037 45.5684 3.38918C45.7373 3.32964 45.9148 3.29823 46.0938 3.29621ZM65.0705 5.92262C65.0895 6.1524 65.0631 6.3837 64.9928 6.60313C64.9224 6.82256 64.8095 7.02576 64.6606 7.20096C64.5451 7.32354 64.4065 7.42165 64.2528 7.48951C64.0991 7.55736 63.9335 7.5936 63.7657 7.59609H60.6135C60.6211 7.73149 60.6663 7.86203 60.7438 7.97294C60.8214 8.08385 60.9282 8.17069 61.0523 8.22364C61.3377 8.39185 61.6626 8.48013 61.9933 8.47931C62.2214 8.48036 62.4493 8.46287 62.6746 8.42701C62.8327 8.40075 62.9889 8.36387 63.1422 8.31661L63.2865 8.26431C63.4514 8.1786 63.6324 8.12908 63.8177 8.11905C64.1006 8.11905 64.343 8.31661 64.5509 8.70011C64.6522 8.89041 64.7113 9.10054 64.7241 9.31604C64.7241 10.1102 63.7792 10.5092 61.8894 10.513C61.2947 10.5212 60.7048 10.4044 60.1574 10.1702C59.6902 9.97584 59.2792 9.66608 58.9623 9.26955C58.6903 8.91976 58.4777 8.52708 58.3331 8.10742C58.1954 7.70146 58.1252 7.27545 58.1252 6.84651C58.1026 6.34496 58.1878 5.84439 58.3752 5.37906C58.5625 4.91373 58.8475 4.49462 59.2106 4.15038C59.7395 3.69123 60.3753 3.37427 61.0587 3.22898C61.7421 3.0837 62.4509 3.11482 63.1191 3.31945C63.7384 3.50324 64.2726 3.90283 64.6259 4.44672C64.7816 4.6744 64.9004 4.92542 64.9781 5.19048C65.0452 5.42849 65.0763 5.6753 65.0705 5.92262ZM62.2589 6.37585C62.5995 6.37585 62.7669 6.23059 62.7669 5.94587C62.7716 5.8508 62.7529 5.75604 62.7127 5.66992C62.6724 5.5838 62.6117 5.50895 62.536 5.45196C62.3376 5.31616 62.1 5.25074 61.8605 5.26602C61.5446 5.27825 61.2435 5.404 61.0119 5.62047C60.8878 5.70493 60.7848 5.817 60.7107 5.948C60.6366 6.07899 60.5935 6.22539 60.5846 6.37585H62.2589ZM66.4272 2.26191C66.6428 2.32453 66.8669 2.35199 67.0911 2.34326C67.321 2.35188 67.5509 2.32444 67.7724 2.26191C67.8461 2.24207 67.9152 2.20772 67.9756 2.16085C68.0361 2.11397 68.0867 2.0555 68.1245 1.98881C68.1818 1.87925 68.2227 1.76177 68.2458 1.64017C68.2537 1.48726 68.2537 1.33404 68.2458 1.18113C68.2537 1.02628 68.2537 0.87113 68.2458 0.716282C68.2219 0.593045 68.1811 0.473752 68.1245 0.361832C68.0873 0.294065 68.0369 0.234478 67.9764 0.18658C67.916 0.138682 67.8466 0.103439 67.7724 0.0829193C67.3305 -0.0254832 66.8691 -0.0254832 66.4272 0.0829193C66.3535 0.102757 66.2844 0.137106 66.224 0.183982C66.1635 0.230859 66.1129 0.289333 66.075 0.35602C66.0127 0.463287 65.9715 0.58167 65.9538 0.704658C65.9458 0.857567 65.9458 1.01079 65.9538 1.1637C65.9459 1.31855 65.9459 1.47371 65.9538 1.62855C65.9723 1.75318 66.0134 1.87333 66.075 1.983C66.1123 2.05077 66.1627 2.11035 66.2231 2.15825C66.2836 2.20615 66.353 2.24139 66.4272 2.26191ZM65.9365 4.01092C65.9285 4.16576 65.9285 4.32092 65.9365 4.47576L65.9596 9.17658C65.9514 9.33142 65.9514 9.48659 65.9596 9.64143C65.9791 9.76396 66.0202 9.88202 66.0808 9.99007C66.1175 10.0589 66.1676 10.1196 66.2281 10.1685C66.2886 10.2175 66.3583 10.2536 66.433 10.2748C66.6492 10.3342 66.8728 10.3616 67.0969 10.3561C67.3267 10.3618 67.5561 10.3344 67.7781 10.2748C67.8524 10.2543 67.9217 10.219 67.9822 10.1711C68.0427 10.1232 68.093 10.0636 68.1303 9.99588C68.1866 9.88794 68.2274 9.77252 68.2516 9.65305C68.2595 9.4982 68.2595 9.34305 68.2516 9.1882V4.49901V4.12132C68.242 4.01605 68.2187 3.9125 68.1823 3.81335C68.1524 3.70553 68.0923 3.60868 68.0091 3.53444C67.9049 3.45981 67.7872 3.4065 67.6627 3.37755C67.4747 3.32601 67.2802 3.30252 67.0854 3.30783C66.8575 3.30166 66.6299 3.32906 66.4099 3.38918C66.3362 3.40901 66.2671 3.44336 66.2066 3.49024C66.1462 3.53712 66.0956 3.59559 66.0577 3.66228C65.9963 3.76996 65.9551 3.88816 65.9365 4.01092ZM74.6772 4.13296C74.6781 4.50831 74.5911 4.87858 74.4232 5.21374C74.3669 5.36378 74.2667 5.49305 74.1357 5.58438C74.0048 5.67571 73.8493 5.72478 73.69 5.72508C73.5321 5.72515 73.3762 5.6894 73.2339 5.62048C73.0968 5.54785 72.9442 5.50996 72.7893 5.51008C72.4986 5.49825 72.2128 5.58864 71.9811 5.76575C71.8852 5.83701 71.8071 5.92977 71.753 6.03668C71.6989 6.14359 71.6702 6.26171 71.6693 6.38168V9.18822C71.6773 9.34307 71.6773 9.49822 71.6693 9.65307C71.6452 9.77338 71.6024 9.88909 71.5423 9.9959C71.5038 10.0649 71.4516 10.1252 71.3891 10.1731C71.3265 10.2211 71.2549 10.2557 71.1786 10.2748C70.9586 10.3349 70.731 10.3623 70.5031 10.3562C70.3083 10.3615 70.1138 10.338 69.9258 10.2864C69.8008 10.2559 69.683 10.2006 69.5794 10.1237C69.4971 10.0511 69.437 9.95635 69.4062 9.85063C69.3691 9.75197 69.3477 9.64804 69.3427 9.54267V9.15917V4.45835C69.3343 4.30546 69.3343 4.15221 69.3427 3.99931C69.3604 3.87633 69.4016 3.75794 69.4639 3.65068C69.5002 3.58271 69.5503 3.52324 69.611 3.47616C69.6717 3.42909 69.7416 3.39549 69.8161 3.37757C70.0356 3.31461 70.2636 3.28715 70.4916 3.29623C70.712 3.28814 70.9322 3.3156 71.144 3.37757C71.2824 3.40604 71.4056 3.4846 71.4904 3.59838C71.5932 3.72363 71.6448 3.88362 71.6347 4.0458C71.6942 3.96525 71.7598 3.88949 71.831 3.81919C71.9932 3.6739 72.1737 3.55081 72.3679 3.45312C72.6233 3.30738 72.9114 3.2294 73.205 3.2265C73.3443 3.22679 73.4833 3.23845 73.6207 3.26136C73.7794 3.28763 73.9357 3.32648 74.0883 3.37757C74.2498 3.42704 74.394 3.52177 74.504 3.65068C74.62 3.78376 74.6819 3.95599 74.6772 4.13296ZM81.0278 4.17365C80.3398 3.5017 79.4174 3.12824 78.4587 3.13354C77.5041 3.14015 76.5909 3.52659 75.9185 4.20851C75.5551 4.5444 75.2671 4.95456 75.074 5.41152C74.8808 5.86848 74.7869 6.3617 74.7985 6.85816C74.7932 7.54328 74.9945 8.21389 75.3758 8.78149C75.719 9.30757 76.1873 9.739 76.7383 10.0366C77.2707 10.3244 77.8659 10.4742 78.4703 10.4724C79.056 10.4711 79.6334 10.3318 80.1561 10.0656C80.7238 9.78192 81.2076 9.35313 81.559 8.82216C82.0169 8.10463 82.2143 7.24977 82.1175 6.40252C82.0206 5.55528 81.6357 4.76781 81.0278 4.17365ZM78.4587 8.11326C78.1411 8.10474 77.8358 7.98797 77.5927 7.78205V7.78787C77.4434 7.67262 77.3242 7.52237 77.2458 7.35021C77.1673 7.17804 77.1318 6.98918 77.1424 6.80005C77.1287 6.61485 77.1593 6.42904 77.2316 6.25818C77.3039 6.08733 77.4159 5.9364 77.5581 5.81806C77.7974 5.60965 78.1019 5.49243 78.4183 5.48685C78.7518 5.48344 79.0761 5.59637 79.3363 5.80643C79.4711 5.9321 79.5787 6.08445 79.6522 6.25394C79.7258 6.42342 79.7638 6.60638 79.7638 6.79134C79.7638 6.9763 79.7258 7.15926 79.6522 7.32874C79.5787 7.49823 79.4711 7.65058 79.3363 7.77624C79.0877 7.98126 78.7798 8.09953 78.4587 8.11326ZM85.5771 10.4724C84.6783 10.4728 83.7984 10.2126 83.0427 9.72278C82.9617 9.67514 82.8952 9.6061 82.8504 9.52313C82.8056 9.44016 82.7843 9.34643 82.7886 9.25211C82.8513 8.84674 83.0275 8.46778 83.2967 8.15971C83.3437 8.08345 83.4104 8.02152 83.4898 7.98057C83.5691 7.93962 83.658 7.9212 83.747 7.92729C84.0383 7.94934 84.3189 8.04748 84.561 8.21201C84.8911 8.42861 85.2707 8.55664 85.6637 8.58389C86.2064 8.58389 86.4778 8.4793 86.4778 8.26431C86.4778 8.17715 86.3912 8.10161 86.2237 8.03769C86.0162 7.96541 85.8012 7.91669 85.5829 7.89243C85.2985 7.84726 85.0197 7.77128 84.7516 7.66581C84.4616 7.55855 84.1831 7.42228 83.9202 7.25906C83.6398 7.07341 83.4176 6.81146 83.2794 6.50368C83.1112 6.12384 83.0303 5.71072 83.0427 5.29507C83.0427 3.88308 84.001 3.17999 85.9293 3.17999C86.6007 3.18968 87.2622 3.34424 87.8691 3.63322C88.1809 3.78043 88.3367 3.97411 88.3367 4.21429C88.3067 4.47426 88.2113 4.72224 88.0596 4.93481C87.8518 5.25439 87.6497 5.41709 87.4477 5.41709C87.2886 5.40222 87.1337 5.35686 86.9916 5.28345C86.6558 5.11503 86.2871 5.02373 85.912 5.01615C85.3924 5.01615 85.1268 5.11494 85.1268 5.3125C85.1313 5.38848 85.1586 5.46132 85.2049 5.52146C85.2513 5.58159 85.3146 5.62623 85.3866 5.64952C85.5924 5.74532 85.8131 5.80431 86.039 5.82384C86.6254 5.90694 87.1957 6.07935 87.7306 6.33517C88.0095 6.48187 88.2372 6.711 88.3829 6.99177C88.5707 7.349 88.6604 7.75016 88.6427 8.1539C88.6569 8.57221 88.5676 8.98751 88.3829 9.36252C88.2195 9.66277 87.9673 9.90442 87.6613 10.054C87.3589 10.208 87.0362 10.3176 86.7029 10.3794C86.3315 10.4471 85.9545 10.4783 85.5771 10.4724ZM97.6086 7.52636C97.3645 7.56066 97.1336 7.65884 96.9389 7.81108L96.8812 7.81689C96.8092 7.86592 96.729 7.90137 96.6445 7.92148C96.5191 7.95996 96.3888 7.97955 96.2577 7.97959C95.9626 7.97275 95.6798 7.85931 95.461 7.66001C95.3405 7.54642 95.2445 7.40917 95.1789 7.25676C95.1133 7.10434 95.0794 6.93999 95.0794 6.77388C95.0794 6.60777 95.1133 6.44342 95.1789 6.29101C95.2445 6.13859 95.3405 6.00135 95.461 5.88776C95.686 5.68725 95.9745 5.57395 96.275 5.56818C96.53 5.54963 96.7823 5.63081 96.9793 5.79479C97.189 5.95325 97.4354 6.05525 97.6952 6.09113C97.9897 6.09113 98.2956 5.84127 98.6189 5.35318C98.7795 5.13449 98.8755 4.87471 98.8961 4.60361C98.8958 4.47074 98.8556 4.34107 98.7806 4.23173C98.7154 4.13292 98.6356 4.04474 98.5439 3.97025L98.1744 3.72039L97.9666 3.58674C97.7421 3.46489 97.5036 3.37122 97.2564 3.30784C96.5372 3.09544 95.7687 3.12605 95.0684 3.395C94.6512 3.55062 94.2614 3.77228 93.9137 4.0516C93.5319 4.36436 93.2275 4.76222 93.0246 5.21373C92.7911 5.69887 92.6725 6.23192 92.6783 6.77098C92.6718 7.32131 92.7902 7.86586 93.0246 8.36309C93.2293 8.81509 93.5357 9.21296 93.9195 9.52522C94.269 9.80338 94.6583 10.0267 95.0742 10.1876C95.4607 10.3391 95.8717 10.4179 96.2865 10.4201C96.9483 10.4419 97.6003 10.255 98.1513 9.88548C98.642 9.58914 98.8845 9.27537 98.8845 8.93254C98.8603 8.67287 98.7529 8.42815 98.5785 8.23526C98.186 7.7646 97.8742 7.52636 97.6086 7.52636ZM103.197 3.13354C104.156 3.12824 105.078 3.5017 105.766 4.17365C106.374 4.76781 106.759 5.55528 106.856 6.40252C106.953 7.24977 106.755 8.10463 106.297 8.82216C105.955 9.36353 105.474 9.80287 104.906 10.0947C104.383 10.3608 103.806 10.5001 103.22 10.5014C102.616 10.5032 102.021 10.3535 101.488 10.0656C100.93 9.76151 100.457 9.31966 100.114 8.78149C99.733 8.21389 99.5317 7.54328 99.5369 6.85816C99.5253 6.3617 99.6192 5.86848 99.8124 5.41152C100.006 4.95456 100.293 4.5444 100.657 4.20851C101.329 3.52659 102.243 3.14015 103.197 3.13354ZM102.331 7.78205C102.574 7.98797 102.88 8.10474 103.197 8.11326C103.518 8.1008 103.827 7.98238 104.075 7.77624C104.209 7.65013 104.316 7.49763 104.389 7.3282C104.462 7.15878 104.5 6.97604 104.5 6.79134C104.5 6.60664 104.462 6.4239 104.389 6.25448C104.316 6.08505 104.209 5.93255 104.075 5.80644C103.812 5.59721 103.486 5.48447 103.151 5.48685C102.835 5.49243 102.53 5.60965 102.291 5.81806C102.149 5.9364 102.037 6.08733 101.964 6.25818C101.892 6.42904 101.861 6.61485 101.875 6.80005C101.865 6.98968 101.901 7.17887 101.981 7.35108C102.061 7.52328 102.181 7.67325 102.331 7.78787V7.78205ZM116.481 3.50737C116.172 3.36069 115.835 3.2846 115.494 3.2846C115.197 3.30044 114.908 3.38814 114.651 3.54027C114.411 3.67051 114.19 3.83273 113.993 4.02255C113.868 4.15739 113.751 4.299 113.641 4.44673C113.449 4.07995 113.156 3.77588 112.798 3.57009C112.441 3.36429 112.032 3.26527 111.62 3.2846C111.441 3.28305 111.262 3.31659 111.095 3.38338C110.943 3.43473 110.8 3.51132 110.674 3.60999C110.563 3.69958 110.461 3.79874 110.368 3.90634C110.3 3.97695 110.238 4.05271 110.183 4.13295L110.114 4.23173C110.13 3.97884 110.05 3.72921 109.888 3.53446C109.637 3.34517 109.323 3.25992 109.011 3.29622C108.781 3.28759 108.551 3.31504 108.33 3.37757C108.255 3.39671 108.185 3.43074 108.123 3.47765C108.062 3.52455 108.01 3.58339 107.972 3.65067C107.91 3.75897 107.867 3.8768 107.845 3.99931C107.837 4.15222 107.837 4.30544 107.845 4.45835V9.17659C107.836 9.33143 107.836 9.48661 107.845 9.64145C107.867 9.76327 107.908 9.88088 107.966 9.99008C108.003 10.0589 108.053 10.1196 108.113 10.1685C108.174 10.2175 108.243 10.2536 108.318 10.2748C108.534 10.3342 108.758 10.3616 108.982 10.3562C109.212 10.3622 109.441 10.3348 109.663 10.2748C109.738 10.255 109.809 10.2201 109.87 10.1721C109.932 10.1242 109.983 10.0643 110.021 9.99589C110.084 9.8904 110.127 9.7742 110.148 9.65307C110.157 9.49823 110.157 9.34304 110.148 9.18821V6.8349C110.148 6.05628 110.396 5.67277 110.945 5.67277C111.493 5.67277 111.77 6.05628 111.77 6.8349V9.15916C111.763 9.31401 111.763 9.46916 111.77 9.62401C111.789 9.74864 111.83 9.86878 111.892 9.97846C111.928 10.0484 111.978 10.1102 112.038 10.1601C112.099 10.2101 112.169 10.2471 112.244 10.269C112.459 10.3336 112.683 10.363 112.908 10.3562C113.138 10.3622 113.367 10.3348 113.589 10.2748C113.665 10.2543 113.736 10.2185 113.797 10.1695C113.859 10.1206 113.91 10.0595 113.947 9.99008C114.009 9.88217 114.052 9.76419 114.074 9.64145C114.082 9.48661 114.082 9.33143 114.074 9.17659V6.85233C114.059 6.55435 114.117 6.25724 114.241 5.98655C114.306 5.87888 114.401 5.79247 114.514 5.73781C114.626 5.68314 114.752 5.66257 114.876 5.67859C115.425 5.67859 115.702 6.06209 115.702 6.84072V9.16497C115.694 9.31982 115.694 9.47497 115.702 9.62982C115.721 9.75445 115.762 9.87459 115.823 9.98427C115.859 10.0542 115.909 10.116 115.97 10.166C116.03 10.2159 116.1 10.2529 116.175 10.2748C116.391 10.3394 116.615 10.3688 116.839 10.362C117.069 10.368 117.299 10.3406 117.521 10.2806C117.595 10.2594 117.665 10.2233 117.726 10.1744C117.786 10.1254 117.836 10.0647 117.873 9.99589C117.929 9.88397 117.97 9.76468 117.994 9.64145C118.002 9.48854 118.002 9.33531 117.994 9.1824V6.85815C117.994 5.59143 117.757 4.71402 117.278 4.13295C117.062 3.8677 116.789 3.65406 116.481 3.50737Z" fill="white"/>
</svg>
