<svg width="81" height="62" viewBox="0 0 81 62" fill="none" xmlns="http://www.w3.org/2000/svg">
<path d="M59.376 61.9894C59.0538 61.9894 58.7418 61.9587 58.4605 61.9382L57.9491 61.9024C57.7804 61.9024 57.6167 61.9024 57.4633 61.9024C57.1541 61.9526 56.8381 61.9409 56.5335 61.868C56.2289 61.7951 55.9417 61.6626 55.6887 61.478C55.3637 61.1805 55.1102 60.8134 54.9472 60.404C54.9029 60.3085 54.8568 60.2165 54.8091 60.1279L54.5994 59.7443C54.2875 59.1766 53.9806 58.6141 53.6533 58.0516C53.3205 57.4379 52.9228 56.8619 52.4669 56.3332C52.3709 56.2458 52.2623 56.1734 52.1447 56.1184C51.8515 55.9765 51.5997 55.7617 51.4134 55.4945L51.3009 55.3002L51.3674 55.0854C51.5146 54.5832 51.6224 54.0702 51.6895 53.5512C52.1396 50.851 50.6309 49.1122 48.8819 47.0973C48.524 46.6779 48.1557 46.2586 47.8029 45.8188C47.4646 45.6086 47.0952 45.4533 46.7085 45.3585C46.2508 45.2438 45.7767 45.2092 45.3072 45.2562C44.8641 45.3313 44.4326 45.4637 44.0236 45.65L43.9111 45.6858C42.7521 45.9204 41.5689 46.0132 40.3875 45.9619C39.2179 45.8961 38.0638 45.6619 36.9611 45.2664L35.8871 44.8829L35.7644 44.8113C35.2349 44.3583 34.6379 43.9908 33.9949 43.722C33.9609 44.0036 33.9472 44.2873 33.954 44.5709C33.954 45.8136 33.954 47.6803 32.3175 49.0304C31.8061 49.3986 31.4175 49.7054 31.0646 49.9918C30.4685 50.815 29.6535 51.4546 28.7121 51.838C27.5717 52.4005 26.8148 52.7687 26.8864 54.9064C26.8864 55.1775 27.1472 55.4638 27.3978 55.7605C27.5884 55.9511 27.7597 56.1601 27.9092 56.3844L28.0524 56.6247C28.3848 57.2026 28.5638 57.4634 29.111 57.5197L29.5202 57.5504C29.844 57.5585 30.1661 57.5996 30.4816 57.6731C31.1618 57.8419 31.6987 58.6243 31.9238 59.3198C32.0472 59.6077 32.0964 59.9219 32.067 60.2338C32.0375 60.5456 31.9302 60.845 31.755 61.1046C30.9419 62.0865 29.2338 61.9075 28.2161 61.8001H28.032C26.4364 61.6416 25.6181 60.6137 24.8255 59.6216C24.6516 59.4068 24.4777 59.1818 24.3141 58.967C23.3352 57.794 22.1995 56.7615 20.9388 55.8985L19.7626 55.0189C19.6778 54.9548 19.607 54.8741 19.5542 54.7818C19.5015 54.6895 19.468 54.5875 19.4557 54.4819C19.4462 54.3802 19.4581 54.2775 19.4907 54.1806C19.5233 54.0837 19.5758 53.9947 19.6449 53.9194C19.9069 53.6329 20.1944 53.371 20.5041 53.137C20.8589 52.892 21.1686 52.5874 21.4195 52.2369C21.7221 51.6621 21.9228 51.0392 22.0127 50.3958C22.0485 50.2219 22.0843 50.0532 22.1252 49.8844C22.1662 49.7157 22.2275 49.4702 22.2633 49.327C22.3912 48.8667 22.3912 48.8565 22.1917 48.161C21.844 47.2846 21.3397 46.4788 20.7035 45.783L20.4018 45.4045C19.4181 44.292 18.6421 43.012 18.1107 41.6252C17.7388 42.6009 17.2216 43.5147 16.5765 44.3357C15.4774 45.5221 14.1344 46.4565 12.6398 47.0744C11.1452 47.6924 9.53449 47.9793 7.91843 47.9155C4.62499 47.7212 2.09865 44.934 0.937762 42.6122C0.292886 41.2827 -0.0278283 39.8194 0.00189249 38.342C0.00189249 37.1709 0.00189172 35.7185 0.820139 34.6343C0.898069 34.5245 1.00442 34.4381 1.12778 34.3841C1.25114 34.3302 1.38685 34.3109 1.52036 34.3282C1.65387 34.3456 1.78014 34.3989 1.88562 34.4826C1.9911 34.5662 2.07182 34.677 2.11911 34.8031C2.24184 35.1048 2.34924 35.4117 2.45152 35.7185C2.58407 36.1292 2.73944 36.5321 2.9169 36.9254C3.3058 37.5976 3.80948 38.1965 4.40508 38.6949C5.45657 39.7102 6.82927 40.3269 8.28664 40.4388C11.5699 40.7047 13.4314 38.4494 14.4235 36.5112L14.986 35.3247C15.9219 33.3661 16.8118 31.5199 18.6477 30.0879C19.476 29.5023 20.4248 29.1091 21.4246 28.9373C22.5485 27.5642 24.0017 26.498 25.6488 25.8382C28.8809 24.529 32.3227 24.2631 35.6468 24.0073C36.4088 23.946 37.181 23.8846 37.9379 23.813C39.5181 23.6698 42.2695 22.7288 44.4787 21.972C45.3123 21.6856 46.013 21.4606 46.6113 21.2611C48.4708 20.6113 50.2433 19.7353 51.889 18.6529L52.1396 18.5046C52.4669 18.3052 52.8095 18.1211 53.1624 17.9319L53.505 17.7478C53.969 15.8696 54.701 14.068 55.6785 12.3985C56.5599 11.0043 57.7541 9.83461 59.1663 8.98228C59.8669 8.56804 60.5982 8.21006 61.2886 7.87765L61.575 7.74468C61.7127 7.05699 61.9253 6.38645 62.2091 5.74509L62.5313 4.97287C63.1246 3.55628 63.6871 2.2164 63.7434 0.707753C63.7457 0.594847 63.7747 0.484099 63.8281 0.384554C63.8814 0.285008 63.9575 0.199488 64.0502 0.134981C64.2069 0.0267527 64.3985 -0.0188597 64.5872 0.00712973C64.7721 -0.00412133 64.9545 0.0542591 65.0986 0.170779C66.2799 1.13222 66.955 2.77383 67.1442 5.19277L67.3539 5.25414C67.8001 5.37533 68.2389 5.52217 68.6682 5.69395C69.6347 6.09284 70.6115 6.55311 71.5627 7.04917C72.1152 7.32899 72.5922 7.73758 72.9535 8.24047C73.3149 8.74335 73.55 9.32578 73.639 9.93861C74.6899 10.6163 75.8072 11.1852 76.9734 11.6365C77.3927 11.8155 77.8172 11.9996 78.2468 12.1939C78.3439 12.2399 78.4616 12.2808 78.5894 12.332C79.1826 12.5621 79.9907 12.8741 80.2617 13.5389C80.4058 13.9225 80.4192 14.343 80.2999 14.735C80.1806 15.1271 79.9353 15.4688 79.602 15.7073L79.4026 15.8914C78.6291 16.545 77.9417 17.2943 77.3569 18.1211C77.1487 18.4791 76.8592 18.7832 76.5119 19.0088C76.1646 19.2344 75.7691 19.3753 75.3573 19.42C74.3419 19.4727 73.3239 19.404 72.3247 19.2155L71.6906 19.1285L71.0206 19.0263C70.6729 18.9649 70.3456 18.9138 69.9978 18.8831H69.783C69.7472 18.9854 69.7166 19.0825 69.6859 19.1848C69.4697 20.1391 69.4212 21.1238 69.5427 22.0947L69.5682 22.5089C69.7262 23.8111 69.6744 25.1303 69.4148 26.4161C69.0093 28.0276 68.0149 29.4288 66.6277 30.3437C66.5714 31.0392 66.5254 31.6835 66.5152 32.333C66.5093 33.7585 66.2135 35.1679 65.6458 36.4754C65.0219 37.8306 63.9735 38.6795 62.9558 39.5029C62.1305 40.18 61.3609 40.9222 60.6545 41.7224L60.4295 42.0037C60.1584 42.3361 59.918 42.6583 59.6623 42.9958C58.2816 44.9238 58.1281 47.2251 57.9849 49.4497C57.9456 50.8469 57.7553 52.2358 57.4173 53.5921C57.3034 54.2147 57.2452 54.8462 57.2434 55.4792C57.2434 56.1287 57.4377 57.6782 58.7776 57.9697L59.0845 58.0311C59.8822 58.1999 60.7925 58.384 61.3449 59.2892C61.5386 59.6347 61.614 60.0342 61.5595 60.4266C61.505 60.8191 61.3237 61.1829 61.0431 61.4626C60.8152 61.6585 60.55 61.8061 60.2635 61.8966C59.9769 61.9872 59.675 62.0187 59.376 61.9894ZM57.9031 60.895H57.9952C58.1537 60.895 58.3378 60.895 58.5475 60.9308C59.0947 60.9819 60.0101 61.0586 60.2863 60.7722C60.4104 60.6545 60.4937 60.5003 60.5241 60.332C60.5545 60.1636 60.5303 59.99 60.455 59.8363C60.1533 59.3249 59.6521 59.2124 58.8594 59.0488L58.5424 58.9823C57.1411 58.6703 56.2768 57.3765 56.2359 55.5201C56.2339 54.8137 56.2955 54.1085 56.42 53.4131V53.3466C56.745 52.0545 56.9268 50.7305 56.9621 49.3986C57.1156 47.0308 57.2741 44.5812 58.8236 42.4179C59.0793 42.0548 59.335 41.7071 59.6265 41.3951L59.8669 41.0985C60.6183 40.2494 61.4357 39.4611 62.3114 38.7409C63.278 37.9585 64.1883 37.2067 64.7099 36.0867C65.2228 34.9089 65.4874 33.6381 65.4872 32.3535C65.4872 31.5966 65.5537 30.8602 65.6202 30.047V29.7964L65.835 29.6584C67.1063 28.8891 68.0246 27.6513 68.392 26.2115C68.6244 25.0326 68.6676 23.8242 68.5199 22.6317L68.4943 22.2174C68.3638 21.1255 68.4279 20.0191 68.6835 18.9496C68.7449 18.7297 68.8216 18.52 68.8983 18.3052L68.9955 18.0546L69.2563 17.9881C69.5169 17.9232 69.7863 17.9007 70.0541 17.9216C70.4325 17.9523 70.8007 18.0137 71.1536 18.0699L71.7929 18.1722L72.4372 18.2643C73.3596 18.4321 74.2978 18.4973 75.2346 18.4586C75.4906 18.427 75.7355 18.3349 75.9489 18.1899C76.1623 18.045 76.3382 17.8514 76.462 17.625C77.0878 16.7243 77.8268 15.9079 78.661 15.1958L78.8554 15.0169C79.3668 14.5361 79.4025 14.3111 79.2696 13.994C79.1673 13.7435 78.5434 13.4826 78.1752 13.3599L77.7763 13.1963C77.3569 13.007 76.9376 12.828 76.5233 12.6491C75.2212 12.1478 73.9806 11.4992 72.8259 10.7159L72.6571 10.5932L72.6213 10.3886C72.5796 9.89323 72.4127 9.41653 72.1363 9.00327C71.8599 8.59001 71.483 8.25373 71.0411 8.02596C70.1154 7.54524 69.1693 7.10031 68.2335 6.70653C67.8371 6.55144 67.4325 6.41827 67.0215 6.30764L66.4589 6.13887L66.1265 6.03148L66.1009 5.68372C65.968 3.60742 65.4975 2.16526 64.6741 1.3061C64.4661 2.7408 64.0419 4.13571 63.4161 5.44336L63.1041 6.20024C62.8087 6.83997 62.6055 7.51837 62.5006 8.21517L62.47 8.50667L62.025 8.71124L61.6773 8.86977C61.0073 9.19195 60.2965 9.54483 59.6317 9.93861C58.3595 10.7036 57.2827 11.7541 56.4865 13.007C55.4637 14.5873 54.9523 16.3618 54.3898 18.2387L54.313 18.4893L54.1341 18.5916C53.9602 18.6939 53.7812 18.7859 53.6227 18.8831C53.2902 19.0672 52.9629 19.2462 52.6408 19.4354L52.3953 19.5888C50.6771 20.695 48.8289 21.5848 46.8926 22.2379C46.3351 22.4118 45.5885 22.6675 44.7958 22.9385C42.5354 23.7107 39.7176 24.6722 38.0197 24.8358C37.2475 24.9074 36.4855 24.9637 35.7133 25.025C32.3124 25.2859 29.1008 25.5364 25.9966 26.7843C24.4502 27.4046 23.094 28.4204 22.0639 29.73L21.9309 29.8936L21.7264 29.9192C20.8451 30.0504 20.0064 30.3848 19.2767 30.896C17.63 32.1796 16.7913 33.9235 15.9066 35.7696C15.7174 36.1634 15.5281 36.5572 15.3236 36.9561C13.7178 40.1422 11.2323 41.6917 8.19971 41.4411C6.50669 41.3222 4.90806 40.6169 3.67889 39.4467C2.9858 38.8636 2.40369 38.1602 1.96057 37.3703C1.76656 36.9418 1.59584 36.503 1.44917 36.056C1.41337 35.9435 1.37245 35.8361 1.33666 35.7236C1.05509 36.5699 0.93708 37.4619 0.988903 38.3522C0.959633 39.6683 1.2436 40.9724 1.81738 42.1571C2.93735 44.4022 5.26936 46.7597 7.95423 46.8978C9.41206 46.9578 10.8656 46.7018 12.2153 46.1475C13.5649 45.5931 14.7788 44.7535 15.7736 43.6862C16.4766 42.7547 17.0305 41.7195 17.4152 40.6178C17.5942 40.1831 17.7783 39.7535 17.9726 39.3341L19.3892 36.3475L18.9341 39.6666C18.8588 40.163 18.8866 40.6696 19.0159 41.1547C19.3995 42.5151 20.2637 43.6146 21.174 44.7806L21.4911 45.1795C22.2192 45.9755 22.787 46.9045 23.1634 47.9155C23.4021 48.4569 23.4295 49.0681 23.2401 49.6287C23.2043 49.7668 23.1583 49.9304 23.1123 50.1401C23.0662 50.3498 23.0407 50.4623 23.0049 50.6515C22.8918 51.4169 22.6443 52.1562 22.2736 52.8352C21.9613 53.2823 21.5737 53.6716 21.128 53.9859C20.9439 54.1342 20.77 54.2723 20.6166 54.4257L21.5474 55.1212C22.867 56.0246 24.0576 57.1033 25.0863 58.3277C25.2857 58.5578 25.4698 58.788 25.6488 59.013C26.4006 59.954 26.9887 60.6955 28.1547 60.8131H28.3439C29.1059 60.8898 30.5276 61.0382 30.993 60.4756C31.0504 60.3478 31.0801 60.2092 31.0801 60.069C31.0801 59.9289 31.0504 59.7903 30.993 59.6625C30.945 59.4601 30.8563 59.2696 30.7323 59.1026C30.6083 58.9355 30.4517 58.7954 30.2719 58.6908C30.0181 58.6343 29.7596 58.6017 29.4997 58.5936L29.0446 58.563C27.9501 58.4504 27.5564 57.7652 27.2035 57.1566L27.0756 56.9316C26.9626 56.7676 26.8379 56.6121 26.7023 56.4662C26.2683 56.0776 25.9887 55.5457 25.9148 54.9678C25.8227 52.1602 27.0859 51.5363 28.3132 50.9328C29.1123 50.6273 29.8041 50.0938 30.3026 49.3986L30.4049 49.2861C30.7884 48.969 31.2129 48.6417 31.7397 48.2633C32.9721 47.2405 32.9773 45.7062 32.9824 44.6118C32.9824 43.8038 32.9824 43.0776 33.55 42.8219C34.1177 42.5662 34.8132 42.8219 36.3628 43.9879C36.6901 44.1107 37.0122 44.2283 37.3395 44.3357C38.3512 44.7016 39.4106 44.9187 40.4847 44.9801C41.5646 45.026 42.6461 44.9436 43.7065 44.7346C44.1957 44.5162 44.7116 44.3631 45.2407 44.2794C45.8352 44.2215 46.4353 44.2647 47.0153 44.4073C47.5337 44.5388 48.0276 44.7529 48.4779 45.0414L48.5495 45.0874L48.6007 45.1539C48.9638 45.604 49.3422 46.0387 49.7155 46.4682C51.4696 48.5139 53.2954 50.5595 52.7584 53.7455C52.6964 54.218 52.6042 54.6861 52.4822 55.1468C52.5538 55.1979 52.6356 55.2439 52.7124 55.29C52.9221 55.3953 53.1137 55.5334 53.28 55.6991C53.7844 56.2829 54.225 56.919 54.5943 57.5964C54.9267 58.1641 55.2387 58.7368 55.5506 59.3096L55.7603 59.6932C55.8166 59.7903 55.8677 59.8977 55.924 60.0102C56.0295 60.2768 56.1838 60.5214 56.3791 60.7313C56.5363 60.8375 56.7136 60.9105 56.9001 60.9457C57.0865 60.9809 57.2782 60.9775 57.4633 60.9359C57.586 60.895 57.7395 60.895 57.9031 60.895Z" fill="white"/>
</svg>
